<svg width="319" height="94" viewBox="0 0 319 94" fill="none" xmlns="http://www.w3.org/2000/svg">
<path d="M68.89 1.90028V1.99028V1.95028V1.90028ZM68.88 23.4103V1.99028C68.91 1.24028 69.53 0.650282 70.28 0.660282C77.58 1.10028 84.22 1.75028 89.9 2.55028H89.92C90.45 2.62028 90.89 2.99028 91.06 3.49028V3.51028C91.08 3.56028 91.09 3.62028 91.1 3.68028V3.73028C91.13 3.88028 91.16 4.04028 91.19 4.24028C91.89 8.99028 92.62 16.4803 93 23.2703C93 23.2703 93.09 24.7903 91.57 24.7903H70.26C69.5 24.7903 68.88 24.1703 68.88 23.4103Z" fill="white"/>
<path d="M24.7901 91.6699V68.8799V70.2599C24.7901 69.4999 24.1701 68.8799 23.4101 68.8799H2.10008C0.580077 68.8799 0.670076 70.3999 0.670076 70.3999C1.05008 77.1999 1.78008 84.6799 2.48008 89.4299C2.51008 89.6299 2.53008 89.7999 2.56008 89.9499V89.9899C2.58008 90.0499 2.59008 90.0999 2.61008 90.1599V90.1799C2.77008 90.6799 3.21008 91.0499 3.74008 91.1199C9.42008 91.9199 16.0801 92.5699 23.4001 93.0099C24.1501 93.0099 24.7601 92.4299 24.7901 91.6799" fill="white"/>
<path d="M49.5901 23.2703C49.5901 23.2703 49.5901 24.7903 51.1101 24.7903H61.8501C61.8501 24.7903 63.3701 24.7903 63.3701 23.2703V1.84026C63.3701 1.84026 63.3701 0.320254 61.8501 0.260254C58.9501 0.140254 54.3401 0.0302539 51.1101 0.0102539C51.1101 0.0102539 49.5901 0.0102522 49.5901 1.52025V23.2703Z" fill="white"/>
<path d="M46.83 92.1701V69.3501V70.2701C46.83 69.5101 46.21 68.8901 45.45 68.8901H46.37H31.81C31.81 68.8901 30.29 68.8901 30.29 70.4101V91.8401C30.29 91.8401 30.29 93.3601 31.81 93.4201C35.56 93.5701 41.11 93.6901 45.31 93.6901C45.31 93.6901 46.83 93.6901 46.83 92.1701Z" fill="white"/>
<path d="M30.3 23.27C30.3 23.27 30.3 24.7901 31.82 24.7901H42.56C42.56 24.7901 44.08 24.79 44.08 23.27V1.51005C44.08 1.51005 44.08 -0.00995087 42.56 4.91266e-05C39.33 0.0200491 34.72 0.130049 31.82 0.250049C31.82 0.250049 30.3 0.310047 30.3 1.83005V23.2601" fill="white"/>
<path d="M18.9401 63.3698H23.2701C23.2701 63.3698 24.79 63.3698 24.79 61.8498V51.1098C24.79 51.1098 24.7901 49.5898 23.2701 49.5898H1.51005C1.51005 49.5898 -0.00995087 49.5898 4.91266e-05 51.1098C0.0200491 54.3398 0.130049 58.9498 0.250049 61.8498C0.250049 61.8498 0.310049 63.3698 1.83005 63.3698H18.9401Z" fill="white"/>
<path d="M0 42.5598C0 42.5598 2.38419e-07 44.0798 1.51 44.0798H23.27C23.27 44.0798 24.79 44.0798 24.79 42.5598V31.8198C24.79 31.8198 24.79 30.2998 23.27 30.2998H1.84C1.84 30.2998 0.32 30.2998 0.26 31.8198C0.14 34.7198 0.0300002 39.3398 0.0100002 42.5598" fill="white"/>
<path d="M24.7801 1.90028V1.99028V1.95028V1.90028ZM24.7901 23.4103V1.99028C24.7601 1.24028 24.1401 0.650282 23.3901 0.660282C16.0901 1.10028 9.45008 1.75028 3.77008 2.55028H3.75008C3.22008 2.62028 2.78008 2.99028 2.61008 3.49028V3.51028C2.59008 3.56028 2.58008 3.62028 2.57008 3.68028V3.73028C2.54008 3.88028 2.51008 4.04028 2.48008 4.24028C1.78008 8.99028 1.05008 16.4803 0.670076 23.2703C0.670076 23.2703 0.580077 24.7903 2.10008 24.7903H23.4101C24.1701 24.7903 24.7901 24.1703 24.7901 23.4103Z" fill="white"/>
<path d="M68.88 63.4601C68.88 63.4601 68.88 64.9801 69.95 66.0601C69.95 66.0601 68.88 64.9901 90.35 86.4601C90.35 86.4601 91.42 87.5301 91.62 86.0301C92.66 77.8401 93.47 65.6801 93.62 53.8701C93.62 53.8701 93.64 52.3501 92.12 52.3501H70.1C70.1 52.3501 68.87 52.3501 68.87 53.5701V63.4601" fill="white"/>
<path d="M93.68 45.4798C93.67 40.2498 93.56 35.2698 93.41 31.8198C93.41 31.8198 93.35 30.2998 91.83 30.2998H70.4C70.4 30.2998 68.88 30.2998 68.88 31.8198V45.3198C68.88 45.3198 68.88 46.8398 70.4 46.8398H92.3C93.06 46.8398 93.66 46.2398 93.68 45.4898" fill="white"/>
<path d="M86.4601 90.3599C71.6601 75.5699 67.0601 70.96 65.6301 69.53C65.1801 69.09 64.6601 68.85 64.2101 68.88H53.8601C53.8601 68.88 52.3401 68.88 52.3401 70.4V92.13C52.3401 92.13 52.3401 93.65 53.8601 93.63C65.6801 93.47 77.8401 92.67 86.0201 91.62C86.0201 91.62 87.5301 91.43 86.4501 90.35" fill="white"/>
<path d="M169.02 80.19C167.82 78.05 166.41 75.74 164.78 73.26C163.15 70.78 161.4 68.27 159.52 65.75C157.64 63.23 155.67 60.81 153.62 58.49C151.57 56.18 149.51 54.13 147.46 52.36V80.19H134.14V14.48H147.46V39.18C150.88 35.19 154.36 31.01 157.89 26.65C161.42 22.29 164.68 18.24 167.67 14.49H183.47C179.45 19.82 175.4 24.94 171.32 29.85C167.25 34.77 162.96 39.71 158.46 44.69C163.19 49.08 167.76 54.28 172.15 60.3C176.55 66.32 180.77 72.95 184.83 80.21H169L169.02 80.19Z" fill="white"/>
<path d="M208.07 14.48C209.1 16.57 210.28 19.14 211.62 22.21C212.96 25.28 214.36 28.6 215.81 32.17C217.26 35.74 218.71 39.39 220.13 43.12C221.56 46.85 222.9 50.36 224.15 53.65C225.41 50.36 226.75 46.85 228.17 43.12C229.6 39.39 231.04 35.74 232.49 32.17C233.94 28.6 235.34 25.28 236.68 22.21C238.02 19.14 239.2 16.57 240.23 14.48H252.35C252.92 18.84 253.44 23.73 253.93 29.13C254.41 34.54 254.84 40.16 255.21 46.01C255.58 51.86 255.92 57.72 256.23 63.6C256.54 69.48 256.81 75.01 257.04 80.2H244.07C243.9 73.82 243.67 66.86 243.39 59.34C243.1 51.82 242.68 44.23 242.11 36.58C241.08 39.24 239.94 42.17 238.68 45.4C237.42 48.62 236.18 51.85 234.96 55.07C233.74 58.29 232.55 61.38 231.41 64.32C230.27 67.26 229.3 69.77 228.5 71.86H219.2C218.4 69.77 217.43 67.26 216.29 64.32C215.15 61.38 213.96 58.3 212.74 55.07C211.51 51.85 210.27 48.62 209.02 45.4C207.77 42.18 206.62 39.24 205.6 36.58C205.03 44.23 204.6 51.82 204.32 59.34C204.03 66.86 203.81 73.82 203.64 80.2H190.67C190.9 75.02 191.17 69.48 191.48 63.6C191.79 57.72 192.13 51.86 192.5 46.01C192.87 40.16 193.3 34.54 193.78 29.13C194.26 23.73 194.79 18.84 195.36 14.48H208.08H208.07Z" fill="white"/>
<path d="M302.81 80.19C301.61 78.05 300.2 75.74 298.57 73.26C296.94 70.78 295.19 68.27 293.31 65.75C291.43 63.23 289.46 60.81 287.41 58.49C285.36 56.18 283.3 54.13 281.25 52.36V80.19H267.93V14.48H281.25V39.18C284.67 35.19 288.15 31.01 291.68 26.65C295.21 22.29 298.47 18.24 301.46 14.49H317.26C313.24 19.82 309.19 24.94 305.11 29.85C301.04 34.77 296.75 39.71 292.25 44.69C296.98 49.08 301.55 54.28 305.94 60.3C310.34 66.32 314.56 72.95 318.62 80.21H302.79L302.81 80.19Z" fill="white"/>
</svg>
