<?xml version="1.0" encoding="UTF-8"?>
<svg id="logo" xmlns="http://www.w3.org/2000/svg" version="1.1" viewBox="0 0 893.4 93.5">
  <!-- Generator: Adobe Illustrator 29.2.1, SVG Export Plug-In . SVG Version: 2.1.0 Build 116)  -->
  <defs>
    <style>
      .st0 {
        fill: #fff;
      }
    </style>
  </defs>
  <path class="st0" d="M24.7,1.9h0c0,0,0,0,0,0h0s0,0,0,0ZM45.4,68.8h-13.6s-1.5,0-1.5,1.5v21.4s0,1.5,1.5,1.6c3.7.2,9.3.3,13.5.3,0,0,1.5,0,1.5-1.5v-21.9c0-.8-.6-1.4-1.4-1.4ZM92,52.3h-22s-1.2,0-1.2,1.2v9.9s0,1.5,1.1,2.6c.1.1,1.8,1.8,20.4,20.4,0,0,1.1,1.1,1.3-.4,1-8.2,1.8-20.3,2-32.1,0,0,0-1.5-1.5-1.5ZM63.3,23.2V1.8s0-1.5-1.5-1.6C58.9.1,54.3,0,51,0c0,0-1.5,0-1.5,1.5v21.7s0,1.5,1.5,1.5h10.7s1.5,0,1.5-1.5ZM91.7,30.2h-21.4s-1.5,0-1.5,1.5v13.5s0,1.5,1.5,1.5h21.9c.8,0,1.4-.6,1.4-1.4,0-5.2-.1-10.2-.3-13.6,0,0,0-1.5-1.6-1.5ZM65.5,69.4c-.5-.4-1-.7-1.4-.6h0s-10.3,0-10.3,0c0,0-1.5,0-1.5,1.5v21.7s0,1.5,1.5,1.5c11.8-.2,23.9-1,32.1-2,0,0,1.5-.2.4-1.3-14.8-14.8-19.4-19.4-20.8-20.8ZM70.2,24.7h21.3c1.5,0,1.4-1.5,1.4-1.5-.4-6.8-1.1-14.3-1.8-19,0-.2,0-.4,0-.5h0c0-.1,0-.2,0-.2h0s0,0,0,0c-.2-.5-.6-.9-1.1-.9h0c-5.7-.8-12.3-1.4-19.6-1.9-.7,0-1.4.6-1.4,1.3v21.4c0,.8.6,1.4,1.4,1.4ZM31.8,24.7h10.7s1.5,0,1.5-1.5V1.5S44,0,42.5,0c-3.2,0-7.8.1-10.7.3,0,0-1.5,0-1.5,1.6v21.4s0,1.5,1.5,1.5ZM68.8,1.9h0c0,0,0,0,0,0h0ZM23.4,68.8H2.1c-1.5,0-1.4,1.5-1.4,1.5.4,6.8,1.1,14.3,1.8,19,0,.2,0,.4,0,.5h0c0,0,0,.2,0,.2h0s0,0,0,0c.2.5.6.9,1.1.9,5.7.8,12.3,1.4,19.6,1.9.7,0,1.4-.6,1.4-1.3v-21.4c0-.8-.6-1.4-1.4-1.4ZM23.2,30.2H1.8s-1.5,0-1.6,1.5c-.1,2.9-.2,7.5-.2,10.7,0,0,0,1.5,1.5,1.5h21.7s1.5,0,1.5-1.5v-10.7s0-1.5-1.5-1.5ZM23.3.7c-7.3.4-13.9,1.1-19.6,1.9h0c-.5,0-1,.4-1.1.9h0c0,0,0,.1,0,.2h0c0,.2,0,.4,0,.6-.7,4.7-1.4,12.2-1.8,19,0,0,0,1.5,1.4,1.5h21.3c.8,0,1.4-.6,1.4-1.4V2c0-.7-.6-1.3-1.4-1.3ZM23.2,49.5H1.5s-1.5,0-1.5,1.5c0,3.2.1,7.8.2,10.7,0,0,0,1.5,1.6,1.5h21.4s1.5,0,1.5-1.5v-10.7s0-1.5-1.5-1.5ZM158.2,44.6c4.5-5,8.8-9.9,12.8-14.8,4.1-4.9,8.1-10,12.1-15.3h-15.8c-3,3.7-6.2,7.8-9.8,12.1-3.5,4.4-7,8.5-10.4,12.5V14.5h-13.3v65.6h13.3v-27.8c2,1.8,4.1,3.8,6.1,6.1,2,2.3,4,4.7,5.9,7.2,1.9,2.5,3.6,5,5.2,7.5,1.6,2.5,3,4.8,4.2,6.9h15.8c-4.1-7.2-8.3-13.9-12.7-19.9-4.4-6-8.9-11.2-13.7-15.6ZM766.2,21.1c1.1,0,2.1-.4,2.9-1.3s1.2-2,1.2-3.5-.4-2.6-1.2-3.5c-.8-.9-1.8-1.3-2.9-1.3s-2.1.4-2.9,1.3c-.8.9-1.2,2-1.2,3.5s.4,2.6,1.2,3.5,1.8,1.3,2.9,1.3ZM254.8,45.9c-.4-5.8-.8-11.5-1.3-16.9-.5-5.4-1-10.3-1.6-14.6h-12.1c-1,2.1-2.2,4.7-3.5,7.7-1.3,3.1-2.7,6.4-4.2,9.9-1.5,3.6-2.9,7.2-4.3,10.9-1.4,3.7-2.8,7.2-4,10.5-1.3-3.3-2.6-6.8-4-10.5-1.4-3.7-2.9-7.4-4.3-10.9-1.5-3.6-2.8-6.9-4.2-9.9-1.3-3.1-2.5-5.6-3.5-7.7h-12.7c-.6,4.4-1.1,9.2-1.6,14.6-.5,5.4-.9,11-1.3,16.9-.4,5.8-.7,11.7-1,17.6-.3,5.9-.6,11.4-.8,16.6h13c.2-6.4.4-13.3.7-20.8.3-7.5.7-15.1,1.3-22.7,1,2.7,2.2,5.6,3.4,8.8,1.3,3.2,2.5,6.4,3.7,9.7,1.2,3.2,2.4,6.3,3.5,9.2,1.1,2.9,2.1,5.4,2.9,7.5h9.3c.8-2.1,1.8-4.6,2.9-7.5,1.1-2.9,2.3-6,3.5-9.2,1.2-3.2,2.5-6.4,3.7-9.7,1.3-3.2,2.4-6.2,3.4-8.8.6,7.6,1,15.2,1.3,22.7.3,7.5.5,14.5.7,20.8h13c-.2-5.2-.5-10.7-.8-16.6-.3-5.9-.7-11.7-1-17.6ZM762.8,63.8c2.3-3.9,4.7-7.6,7.1-11.2,2.4-3.6,4.6-6.8,6.7-9.7,2.1-2.9,3.8-5.2,5.1-6.8v-5h-30.2v5.2h23.4c-1.5,2.1-3.4,4.7-5.6,7.8-2.2,3.2-4.5,6.6-6.9,10.2s-4.6,7.3-6.8,11c-2.2,3.7-4,7.2-5.5,10.3v4.4h32.2v-5.2h-25.9c1.8-3.5,3.8-7.1,6.2-11ZM738.4,35.1c-1.2-1.6-2.9-2.9-4.9-3.8-2-.9-4.5-1.4-7.4-1.4s-5.3.2-7.3.7c-2,.4-3.5.9-4.5,1.4l.8,5.4c.7-.3,1.9-.7,3.5-1.2,1.6-.5,4-.8,7.2-.8s4.1.4,5.5,1.2c1.4.8,2.5,1.8,3.2,3.1.8,1.3,1.3,2.7,1.5,4.4.2,1.6.3,3.3.3,5v3c-.2-.1-.6-.3-1.2-.4-.6-.2-1.3-.3-2.1-.5-.8-.2-1.7-.3-2.6-.4-.9,0-1.7-.1-2.5-.1-2.7,0-5.1.3-7.4.9-2.3.6-4.2,1.5-5.9,2.7-1.6,1.2-2.9,2.8-3.8,4.7-.9,1.9-1.4,4.2-1.4,6.8s.4,5.1,1.2,7.1c.8,1.9,2,3.5,3.4,4.7s3.2,2.1,5.1,2.7c2,.6,4.1.9,6.4.9s3.6,0,5.3-.2c1.7-.2,3.3-.4,4.7-.6,1.4-.3,2.7-.5,3.7-.7,1.1-.2,1.9-.4,2.5-.6v-30.9c0-2.6-.3-5-.9-7.2-.6-2.2-1.5-4.1-2.7-5.7ZM736.4,74.8c-1.1.3-2.5.5-4.1.6-1.6.2-3.5.2-5.7.2s-3.3-.2-4.7-.5c-1.4-.3-2.6-.9-3.6-1.7-1-.8-1.8-1.8-2.3-3-.5-1.3-.8-2.8-.8-4.6s.4-3.8,1.2-5c.8-1.3,1.8-2.3,3.1-3,1.2-.7,2.6-1.2,4.1-1.4,1.5-.2,2.9-.3,4.3-.3,2.4,0,4.3.2,5.6.5,1.4.3,2.4.7,3,1v17.2ZM698.6,58c-1.2-1.1-2.6-2-4.1-2.8-1.6-.8-3.2-1.6-4.9-2.3-1.6-.8-3.1-1.4-4.4-2.1-1.3-.6-2.4-1.3-3.2-2-.9-.7-1.5-1.6-2-2.5-.5-.9-.7-2.1-.7-3.4s.3-2.4.8-3.4c.5-.9,1.2-1.7,2-2.3.9-.6,1.8-1,2.9-1.3s2.3-.4,3.5-.4c3.1,0,5.5.3,7.1.9,1.6.6,2.8,1.1,3.5,1.5l1.3-5.5c-.8-.4-2.2-.9-4.1-1.5-2-.6-4.4-.9-7.5-.9-4.7,0-8.4,1.2-11.1,3.7-2.7,2.5-4,5.7-4,9.7s.3,3.9,1,5.3c.7,1.5,1.6,2.7,2.7,3.7,1.1,1,2.4,2,3.9,2.7,1.5.8,3,1.6,4.7,2.3,2,.9,3.8,1.8,5.2,2.5,1.4.7,2.5,1.4,3.4,2.2.9.8,1.5,1.6,1.8,2.6s.6,2.1.6,3.4c0,2.8-1,4.7-3.1,5.9-2.1,1.2-4.7,1.8-7.9,1.8s-3.3-.1-4.6-.4c-1.3-.3-2.5-.6-3.5-.9-1-.3-1.7-.7-2.3-.9-.6-.3-.9-.5-1.1-.6l-1.4,5.6c.7.4,2,.9,4.1,1.7,2,.7,5,1.1,8.9,1.1s9.2-1.1,12.2-3.4c3-2.3,4.5-5.6,4.5-10s-.4-4.3-1.1-5.8c-.7-1.5-1.7-2.9-2.9-4ZM892.6,40.9c-.6-2.2-1.5-4.1-2.7-5.7-1.2-1.6-2.9-2.9-4.9-3.8-2-.9-4.5-1.4-7.4-1.4s-5.3.2-7.3.7c-2,.4-3.5.9-4.5,1.4l.8,5.4c.7-.3,1.9-.7,3.5-1.2,1.6-.5,4-.8,7.2-.8s4.1.4,5.5,1.2c1.4.8,2.5,1.8,3.2,3.1.8,1.3,1.3,2.7,1.5,4.4.2,1.6.3,3.3.3,5v3c-.2-.1-.6-.3-1.2-.4-.6-.2-1.3-.3-2.1-.5-.8-.2-1.7-.3-2.6-.4-.9,0-1.7-.1-2.5-.1-2.7,0-5.1.3-7.4.9-2.3.6-4.2,1.5-5.9,2.7-1.6,1.2-2.9,2.8-3.8,4.7-.9,1.9-1.4,4.2-1.4,6.8s.4,5.1,1.2,7.1c.8,1.9,2,3.5,3.4,4.7s3.2,2.1,5.1,2.7c2,.6,4.1.9,6.4.9s3.6,0,5.3-.2c1.7-.2,3.3-.4,4.7-.6,1.4-.3,2.7-.5,3.7-.7,1.1-.2,1.9-.4,2.5-.6v-30.9c0-2.6-.3-5-.9-7.2ZM887.9,74.8c-1.1.3-2.5.5-4.1.6-1.6.2-3.5.2-5.7.2s-3.3-.2-4.7-.5c-1.4-.3-2.6-.9-3.6-1.7-1-.8-1.8-1.8-2.3-3-.5-1.3-.8-2.8-.8-4.6s.4-3.8,1.2-5c.8-1.3,1.8-2.3,3.1-3,1.2-.7,2.6-1.2,4.1-1.4,1.5-.2,2.9-.3,4.3-.3,2.4,0,4.3.2,5.6.5,1.4.3,2.4.7,3,1v17.2ZM661.2,35.1c-1.2-1.6-2.9-2.9-4.9-3.8-2-.9-4.5-1.4-7.4-1.4s-5.3.2-7.3.7c-2,.4-3.5.9-4.5,1.4l.8,5.4c.7-.3,1.9-.7,3.5-1.2,1.6-.5,4-.8,7.2-.8s4.1.4,5.5,1.2c1.4.8,2.5,1.8,3.2,3.1.8,1.3,1.3,2.7,1.5,4.4.2,1.6.3,3.3.3,5v3c-.2-.1-.6-.3-1.2-.4-.6-.2-1.3-.3-2.1-.5-.8-.2-1.7-.3-2.6-.4-.9,0-1.7-.1-2.5-.1-2.7,0-5.1.3-7.4.9-2.3.6-4.2,1.5-5.9,2.7-1.6,1.2-2.9,2.8-3.8,4.7-.9,1.9-1.4,4.2-1.4,6.8s.4,5.1,1.2,7.1c.8,1.9,2,3.5,3.4,4.7s3.2,2.1,5.1,2.7c2,.6,4.1.9,6.4.9s3.6,0,5.3-.2c1.7-.2,3.3-.4,4.7-.6,1.4-.3,2.7-.5,3.7-.7,1.1-.2,1.9-.4,2.5-.6v-30.9c0-2.6-.3-5-.9-7.2-.6-2.2-1.5-4.1-2.7-5.7ZM659.2,74.8c-1.1.3-2.5.5-4.1.6-1.6.2-3.5.2-5.7.2s-3.3-.2-4.7-.5c-1.4-.3-2.6-.9-3.6-1.7-1-.8-1.8-1.8-2.3-3-.5-1.3-.8-2.8-.8-4.6s.4-3.8,1.2-5c.8-1.3,1.8-2.3,3.1-3,1.2-.7,2.6-1.2,4.1-1.4,1.5-.2,2.9-.3,4.3-.3,2.4,0,4.3.2,5.6.5,1.4.3,2.4.7,3,1v17.2ZM849.3,30.2c-3.6,0-6.6.4-9.1,1.1-2.5.7-4.5,1.4-5.9,2.1v46.7h5.5v-42.9c.5-.3,1.4-.6,2.9-.9s3.4-.6,5.8-.6,4.1.1,5.5.4c1.4.3,2.3.6,2.8.8l1.1-5.3c-.6-.3-1.7-.6-3.4-.9s-3.3-.5-5.2-.5ZM806.7,30c-2.4,0-4.8.5-7.1,1.6-2.3,1-4.3,2.6-6.1,4.8-1.8,2.1-3.2,4.8-4.3,8s-1.7,6.9-1.7,11.2.4,7.1,1.2,10.3c.8,3.1,2.1,5.8,3.8,8.1,1.8,2.3,4,4,6.7,5.3s6,1.9,9.9,1.9,5.5-.3,7.7-1c2.2-.7,3.7-1.3,4.5-1.8l-1-5.3c-.8.4-2.1,1-3.8,1.6-1.8.6-4.1.9-7.2.9-5.5,0-9.4-1.6-11.9-4.8-2.5-3.2-3.8-7.8-4-13.8h30.9c0-.4,0-.9.1-1.4,0-.5,0-1,0-1.5,0-8.1-1.6-14.2-4.8-18.1-3.2-3.9-7.5-5.9-12.9-5.9ZM793.4,51.7c.1-2.1.5-4.2,1.2-6.2s1.6-3.7,2.7-5.2c1.2-1.5,2.5-2.7,4.1-3.5,1.6-.9,3.3-1.3,5.3-1.3,3.8,0,6.6,1.4,8.7,4.3s3.1,6.8,3.2,11.9h-25.2ZM553.7,74c-.5-.5-.9-1.3-1.2-2.2-.3-.9-.4-2.1-.4-3.6V6.6l-5.5,1.1v60.6c0,2.3.2,4.3.7,5.8.5,1.5,1.2,2.8,2.1,3.8.9,1,2.1,1.7,3.5,2.2,1.4.5,3,.7,4.9.8l.8-5.1c-1.1-.2-2.1-.4-2.9-.7-.8-.3-1.5-.6-2-1.2ZM456.9,30.2c-3.6,0-6.6.4-9.1,1.1-2.5.7-4.5,1.4-5.9,2.1v46.7h5.5v-42.9c.5-.3,1.4-.6,2.9-.9s3.4-.6,5.8-.6,4.1.1,5.5.4c1.4.3,2.3.6,2.8.8l1.1-5.3c-.6-.3-1.7-.6-3.4-.9s-3.3-.5-5.2-.5ZM426.1,37c-1.8-2.2-3.9-4-6.3-5.2-2.4-1.2-5.1-1.8-8.1-1.8s-5.7.6-8.1,1.8c-2.4,1.2-4.6,3-6.3,5.2-1.8,2.2-3.2,4.9-4.2,8.1-1,3.2-1.5,6.7-1.5,10.5s.5,7.4,1.5,10.5c1,3.2,2.4,5.8,4.2,8s3.9,3.9,6.3,5.2c2.4,1.2,5.1,1.8,8.1,1.8s5.7-.6,8.1-1.8c2.4-1.2,4.6-3,6.3-5.2s3.2-4.9,4.2-8c1-3.2,1.5-6.7,1.5-10.5s-.5-7.4-1.5-10.5c-1-3.2-2.4-5.9-4.2-8.1ZM422,70.2c-2.6,3.6-6,5.4-10.4,5.4s-7.8-1.8-10.4-5.4c-2.6-3.6-3.8-8.5-3.8-14.6s1.3-11,3.8-14.6c2.6-3.6,6-5.4,10.4-5.4s7.8,1.8,10.4,5.4c2.6,3.6,3.8,8.5,3.8,14.6s-1.3,11-3.8,14.6ZM379.7,19.2c-4.1-3.5-10.3-5.3-18.7-5.3s-5,.1-7.7.4c-2.8.3-5.2.7-7.2,1.4v64.4h5.8v-25.4h8c4,0,7.7-.4,10.9-1.1,3.2-.7,5.9-1.9,8.1-3.5,2.2-1.6,3.9-3.7,5.1-6.3,1.2-2.6,1.8-5.8,1.8-9.5,0-6.5-2-11.5-6.1-15.1ZM378.3,41.6c-1,2-2.3,3.5-4.1,4.6-1.8,1.1-3.9,1.9-6.5,2.3-2.5.4-5.4.6-8.5.6h-7.3v-29c1.1-.1,2.4-.3,3.9-.4,1.5-.2,3.3-.2,5.5-.2s4.6.2,6.8.7c2.2.4,4.2,1.2,5.9,2.3,1.7,1.1,3.1,2.6,4.2,4.5,1.1,1.9,1.6,4.3,1.6,7.2s-.5,5.5-1.4,7.5ZM291.8,44.6c4.5-5,8.8-9.9,12.8-14.8,4.1-4.9,8.1-10,12.1-15.3h-15.8c-3,3.7-6.2,7.8-9.8,12.1s-7,8.5-10.4,12.5V14.5h-13.3v65.6h13.3v-27.8c2,1.8,4.1,3.8,6.1,6.1,2,2.3,4,4.7,5.9,7.2,1.9,2.5,3.6,5,5.2,7.5,1.6,2.5,3,4.8,4.2,6.9h15.8c-4.1-7.2-8.3-13.9-12.7-19.9-4.4-6-8.9-11.2-13.7-15.6ZM621.8,19.2c-4.1-3.5-10.3-5.3-18.7-5.3s-5,.1-7.7.4c-2.8.3-5.2.7-7.2,1.4v64.4h5.8v-25.4h8c4,0,7.7-.4,10.9-1.1,3.2-.7,5.9-1.9,8.1-3.5,2.2-1.6,3.9-3.7,5.1-6.3,1.2-2.6,1.8-5.8,1.8-9.5,0-6.5-2-11.5-6.1-15.1ZM620.4,41.6c-1,2-2.3,3.5-4.1,4.6-1.8,1.1-3.9,1.9-6.5,2.3-2.5.4-5.4.6-8.5.6h-7.3v-29c1.1-.1,2.4-.3,3.9-.4,1.5-.2,3.3-.2,5.5-.2s4.6.2,6.8.7c2.2.4,4.2,1.2,5.9,2.3,1.7,1.1,3.1,2.6,4.2,4.5,1.1,1.9,1.6,4.3,1.6,7.2s-.5,5.5-1.4,7.5ZM492.8,74.6c-1.4.6-3.3.9-5.6.9s-2.6-.2-3.8-.5c-1.1-.3-2.1-.9-2.9-1.9-.8-.9-1.4-2.3-1.8-4-.4-1.7-.6-4-.6-6.8v-26h17.6v-5.2h-17.6v-15.5l-5.5,1.1v45.1c0,3.3.2,6.1.7,8.5.5,2.4,1.2,4.4,2.3,6,1.1,1.6,2.6,2.8,4.4,3.6,1.8.8,4.1,1.2,6.9,1.2s4.5-.4,6.5-1.1c2-.7,3.4-1.4,4.2-1.9l-1.4-5.1c-.8.5-1.9,1.1-3.3,1.7ZM531.1,35.1c-1.2-1.6-2.9-2.9-4.9-3.8-2-.9-4.5-1.4-7.4-1.4s-5.3.2-7.3.7c-2,.4-3.5.9-4.5,1.4l.8,5.4c.7-.3,1.9-.7,3.5-1.2,1.6-.5,4-.8,7.2-.8s4.1.4,5.5,1.2c1.4.8,2.5,1.8,3.2,3.1.8,1.3,1.3,2.7,1.5,4.4.2,1.6.3,3.3.3,5v3c-.2-.1-.6-.3-1.2-.4-.6-.2-1.3-.3-2.1-.5-.8-.2-1.7-.3-2.6-.4-.9,0-1.7-.1-2.5-.1-2.7,0-5.1.3-7.4.9-2.3.6-4.2,1.5-5.9,2.7-1.6,1.2-2.9,2.8-3.8,4.7-.9,1.9-1.4,4.2-1.4,6.8s.4,5.1,1.2,7.1c.8,1.9,2,3.5,3.4,4.7s3.2,2.1,5.1,2.7c2,.6,4.1.9,6.4.9s3.6,0,5.3-.2c1.7-.2,3.3-.4,4.7-.6,1.4-.3,2.7-.5,3.7-.7,1.1-.2,1.9-.4,2.5-.6v-30.9c0-2.6-.3-5-.9-7.2-.6-2.2-1.5-4.1-2.7-5.7ZM529.2,74.8c-1.1.3-2.5.5-4.1.6-1.6.2-3.5.2-5.7.2s-3.3-.2-4.7-.5c-1.4-.3-2.6-.9-3.6-1.7-1-.8-1.8-1.8-2.3-3-.5-1.3-.8-2.8-.8-4.6s.4-3.8,1.2-5c.8-1.3,1.8-2.3,3.1-3,1.2-.7,2.6-1.2,4.1-1.4,1.5-.2,2.9-.3,4.3-.3,2.4,0,4.3.2,5.6.5,1.4.3,2.4.7,3,1v17.2Z"/>
</svg>