<svg width="70" height="23" viewBox="0 0 70 23" fill="none" xmlns="http://www.w3.org/2000/svg">
<rect x="1" y="1.31445" width="68" height="20.5" rx="10.25" stroke="#00305F" stroke-width="2"/>
<rect y="0.314453" width="60" height="22.5" rx="11.25" fill="#00305F"/>
<g clip-path="url(#clip0_2010_6398)">
<path d="M14.8295 15.0645L14.7335 13.9605V9.06445H16.3175V15.0645H14.8295ZM10.7615 12.1365V9.06445H12.3455V12.1365H10.7615ZM12.3455 12.1365C12.3455 12.5365 12.3895 12.8525 12.4775 13.0845C12.5735 13.3085 12.7055 13.4725 12.8735 13.5765C13.0495 13.6725 13.2455 13.7205 13.4615 13.7205C13.8775 13.7285 14.1935 13.6045 14.4095 13.3485C14.6255 13.0845 14.7335 12.7045 14.7335 12.2085H15.2735C15.2735 12.8485 15.1775 13.3925 14.9855 13.8405C14.7935 14.2805 14.5295 14.6205 14.1935 14.8605C13.8575 15.0925 13.4615 15.2085 13.0055 15.2085C12.5255 15.2085 12.1175 15.1125 11.7815 14.9205C11.4455 14.7285 11.1895 14.4325 11.0135 14.0325C10.8455 13.6245 10.7615 13.1005 10.7615 12.4605V12.1365H12.3455ZM17.6899 15.0645V6.66445H19.2739V15.0645H17.6899ZM23.343 17.6205C22.887 17.6205 22.483 17.5885 22.131 17.5245C21.779 17.4605 21.483 17.3765 21.243 17.2725C21.003 17.1685 20.807 17.0645 20.655 16.9605L21.279 15.6885C21.391 15.7525 21.539 15.8245 21.723 15.9045C21.907 15.9925 22.127 16.0645 22.383 16.1205C22.639 16.1845 22.935 16.2165 23.271 16.2165C23.591 16.2165 23.871 16.1525 24.111 16.0245C24.359 15.9045 24.551 15.7125 24.687 15.4485C24.831 15.1925 24.903 14.8645 24.903 14.4645V9.06445H26.487V14.4165C26.487 15.0885 26.359 15.6645 26.103 16.1445C25.847 16.6325 25.483 17.0005 25.011 17.2485C24.547 17.4965 23.991 17.6205 23.343 17.6205ZM23.031 14.8965C22.479 14.8965 21.999 14.7765 21.591 14.5365C21.191 14.2965 20.879 13.9605 20.655 13.5285C20.431 13.0965 20.319 12.5845 20.319 11.9925C20.319 11.3685 20.431 10.8285 20.655 10.3725C20.879 9.90845 21.191 9.55245 21.591 9.30445C21.999 9.04845 22.479 8.92045 23.031 8.92045C23.511 8.92045 23.927 9.04845 24.279 9.30445C24.631 9.55245 24.903 9.90845 25.095 10.3725C25.287 10.8365 25.383 11.3885 25.383 12.0285C25.383 12.6045 25.287 13.1085 25.095 13.5405C24.903 13.9725 24.631 14.3085 24.279 14.5485C23.927 14.7805 23.511 14.8965 23.031 14.8965ZM23.487 13.5645C23.759 13.5645 23.995 13.4965 24.195 13.3605C24.403 13.2165 24.563 13.0245 24.675 12.7845C24.787 12.5365 24.843 12.2565 24.843 11.9445C24.843 11.6245 24.783 11.3445 24.663 11.1045C24.551 10.8645 24.391 10.6765 24.183 10.5405C23.983 10.4045 23.747 10.3365 23.475 10.3365C23.195 10.3365 22.947 10.4045 22.731 10.5405C22.515 10.6765 22.347 10.8645 22.227 11.1045C22.107 11.3445 22.043 11.6245 22.035 11.9445C22.043 12.2565 22.107 12.5365 22.227 12.7845C22.347 13.0245 22.515 13.2165 22.731 13.3605C22.955 13.4965 23.207 13.5645 23.487 13.5645ZM30.67 15.2085C30.062 15.2085 29.518 15.0765 29.038 14.8125C28.566 14.5405 28.194 14.1685 27.922 13.6965C27.658 13.2245 27.526 12.6805 27.526 12.0645C27.526 11.4485 27.658 10.9045 27.922 10.4325C28.186 9.96045 28.554 9.59245 29.026 9.32845C29.498 9.05645 30.038 8.92045 30.646 8.92045C31.262 8.92045 31.806 9.05645 32.278 9.32845C32.75 9.59245 33.118 9.96045 33.382 10.4325C33.646 10.9045 33.778 11.4485 33.778 12.0645C33.778 12.6805 33.646 13.2245 33.382 13.6965C33.118 14.1685 32.75 14.5405 32.278 14.8125C31.814 15.0765 31.278 15.2085 30.67 15.2085ZM30.67 13.7445C30.966 13.7445 31.226 13.6725 31.45 13.5285C31.674 13.3845 31.846 13.1885 31.966 12.9405C32.094 12.6845 32.158 12.3925 32.158 12.0645C32.158 11.7365 32.094 11.4485 31.966 11.2005C31.838 10.9445 31.658 10.7445 31.426 10.6005C31.202 10.4565 30.942 10.3845 30.646 10.3845C30.358 10.3845 30.098 10.4565 29.866 10.6005C29.642 10.7445 29.466 10.9445 29.338 11.2005C29.21 11.4485 29.146 11.7365 29.146 12.0645C29.146 12.3925 29.21 12.6845 29.338 12.9405C29.466 13.1885 29.646 13.3845 29.878 13.5285C30.11 13.6725 30.374 13.7445 30.67 13.7445ZM40.1809 15.0645L42.1729 9.06445H43.7809L41.7409 15.0645H40.1809ZM36.1969 15.0645L38.1169 9.06445H39.4969L37.6009 15.0645H36.1969ZM36.0409 15.0645L34.0009 9.06445H35.6089L37.5169 15.0645H36.0409ZM40.1809 15.0645L38.3089 9.06445H39.6769L41.5849 15.0645H40.1809ZM45.7844 17.6085C45.5684 17.6085 45.3284 17.5645 45.0644 17.4765C44.8084 17.3965 44.5804 17.3005 44.3804 17.1885L44.9684 15.9045C45.1044 15.9765 45.2284 16.0325 45.3404 16.0725C45.4604 16.1205 45.5644 16.1445 45.6524 16.1445C45.8204 16.1445 45.9684 16.0965 46.0964 16.0005C46.2244 15.9125 46.3284 15.7805 46.4084 15.6045L47.1164 13.9365L49.0244 9.06445H50.7644L48.0404 15.5805C47.8724 15.9805 47.6964 16.3325 47.5124 16.6365C47.3284 16.9485 47.1004 17.1885 46.8284 17.3565C46.5644 17.5245 46.2164 17.6085 45.7844 17.6085ZM46.6964 15.0645L43.9484 9.06445H45.6884L47.6924 13.9365L48.2084 15.0645H46.6964Z" fill="white"/>
</g>
<defs>
<clipPath id="clip0_2010_6398">
<rect x="2" y="2.31445" width="56" height="18.5" rx="9.25" fill="white"/>
</clipPath>
</defs>
</svg>
