<svg width="70" height="24" viewBox="0 0 70 24" fill="none" xmlns="http://www.w3.org/2000/svg">
<rect x="1" y="1.81445" width="68" height="20.5" rx="10.25" stroke="#00305F" stroke-width="2"/>
<rect x="1.25" y="1.31445" width="67.5" height="21.5" rx="10.75" fill="#00305F"/>
<path d="M9.57072 15.5645V9.56445H11.0587L11.1547 10.6685V15.5645H9.57072ZM13.5427 15.5645V12.4925H15.1267V15.5645H13.5427ZM13.5427 12.4925C13.5427 12.0845 13.4947 11.7685 13.3987 11.5445C13.3107 11.3205 13.1827 11.1605 13.0147 11.0645C12.8467 10.9605 12.6507 10.9085 12.4267 10.9085C12.0187 10.9005 11.7027 11.0245 11.4787 11.2805C11.2627 11.5365 11.1547 11.9165 11.1547 12.4205H10.6267C10.6267 11.7805 10.7187 11.2405 10.9027 10.8005C11.0947 10.3525 11.3587 10.0125 11.6947 9.78045C12.0387 9.54045 12.4387 9.42045 12.8947 9.42045C13.3667 9.42045 13.7707 9.51645 14.1067 9.70845C14.4427 9.90045 14.6987 10.2005 14.8747 10.6085C15.0507 11.0085 15.1347 11.5285 15.1267 12.1685V12.4925H13.5427ZM19.211 15.7085C18.603 15.7085 18.059 15.5765 17.579 15.3125C17.107 15.0405 16.735 14.6685 16.463 14.1965C16.199 13.7245 16.067 13.1805 16.067 12.5645C16.067 11.9485 16.199 11.4045 16.463 10.9325C16.727 10.4605 17.095 10.0925 17.567 9.82845C18.039 9.55645 18.579 9.42045 19.187 9.42045C19.803 9.42045 20.347 9.55645 20.819 9.82845C21.291 10.0925 21.659 10.4605 21.923 10.9325C22.187 11.4045 22.319 11.9485 22.319 12.5645C22.319 13.1805 22.187 13.7245 21.923 14.1965C21.659 14.6685 21.291 15.0405 20.819 15.3125C20.355 15.5765 19.819 15.7085 19.211 15.7085ZM19.211 14.2445C19.507 14.2445 19.767 14.1725 19.991 14.0285C20.215 13.8845 20.387 13.6885 20.507 13.4405C20.635 13.1845 20.699 12.8925 20.699 12.5645C20.699 12.2365 20.635 11.9485 20.507 11.7005C20.379 11.4445 20.199 11.2445 19.967 11.1005C19.743 10.9565 19.483 10.8845 19.187 10.8845C18.899 10.8845 18.639 10.9565 18.407 11.1005C18.183 11.2445 18.007 11.4445 17.879 11.7005C17.751 11.9485 17.687 12.2365 17.687 12.5645C17.687 12.8925 17.751 13.1845 17.879 13.4405C18.007 13.6885 18.187 13.8845 18.419 14.0285C18.651 14.1725 18.915 14.2445 19.211 14.2445ZM24.4797 12.4085C24.4797 11.7605 24.6037 11.2245 24.8517 10.8005C25.1077 10.3765 25.4317 10.0605 25.8237 9.85245C26.2237 9.64445 26.6397 9.54045 27.0717 9.54045V11.0765C26.7037 11.0765 26.3557 11.1205 26.0277 11.2085C25.7077 11.2965 25.4477 11.4405 25.2477 11.6405C25.0477 11.8405 24.9477 12.0965 24.9477 12.4085H24.4797ZM23.3637 15.5645V9.56445H24.9477V15.5645H23.3637ZM27.9106 15.5645V9.56445H29.3986L29.4706 10.3445C29.6546 10.0405 29.8906 9.81245 30.1786 9.66045C30.4666 9.50045 30.7866 9.42045 31.1386 9.42045C31.6266 9.42045 32.0346 9.52445 32.3626 9.73245C32.6986 9.94045 32.9426 10.2605 33.0946 10.6925C33.2706 10.2845 33.5186 9.97245 33.8386 9.75645C34.1586 9.53245 34.5306 9.42045 34.9546 9.42045C35.6586 9.42045 36.1946 9.64445 36.5626 10.0925C36.9306 10.5325 37.1146 11.2125 37.1146 12.1325V15.5645H35.5306V12.4925C35.5306 12.0845 35.4866 11.7685 35.3986 11.5445C35.3106 11.3205 35.1906 11.1605 35.0386 11.0645C34.8866 10.9605 34.7066 10.9085 34.4986 10.9085C34.1146 10.9005 33.8186 11.0245 33.6106 11.2805C33.4026 11.5365 33.2986 11.9165 33.2986 12.4205V15.5645H31.7146V12.4925C31.7146 12.0845 31.6706 11.7685 31.5826 11.5445C31.5026 11.3205 31.3826 11.1605 31.2226 11.0645C31.0706 10.9605 30.8906 10.9085 30.6826 10.9085C30.2986 10.9005 30.0026 11.0245 29.7946 11.2805C29.5946 11.5365 29.4946 11.9165 29.4946 12.4205V15.5645H27.9106ZM41.9994 15.5645L41.9514 14.3525V12.5285C41.9514 12.1685 41.9114 11.8605 41.8314 11.6045C41.7594 11.3485 41.6394 11.1525 41.4714 11.0165C41.3114 10.8725 41.0914 10.8005 40.8114 10.8005C40.5554 10.8005 40.3234 10.8565 40.1154 10.9685C39.9074 11.0805 39.7314 11.2525 39.5874 11.4845L38.1954 11.0045C38.3074 10.7485 38.4714 10.5005 38.6874 10.2605C38.9034 10.0125 39.1834 9.81245 39.5274 9.66045C39.8794 9.50045 40.3074 9.42045 40.8114 9.42045C41.4194 9.42045 41.9234 9.53645 42.3234 9.76845C42.7314 10.0005 43.0314 10.3285 43.2234 10.7525C43.4234 11.1685 43.5194 11.6645 43.5114 12.2405L43.4754 15.5645H41.9994ZM40.3194 15.7085C39.5994 15.7085 39.0394 15.5485 38.6394 15.2285C38.2474 14.9085 38.0514 14.4565 38.0514 13.8725C38.0514 13.2325 38.2634 12.7525 38.6874 12.4325C39.1194 12.1045 39.7234 11.9405 40.4994 11.9405H42.0234V13.1165H41.0514C40.5314 13.1165 40.1714 13.1805 39.9714 13.3085C39.7714 13.4285 39.6714 13.6005 39.6714 13.8245C39.6714 14.0005 39.7514 14.1405 39.9114 14.2445C40.0714 14.3405 40.2954 14.3885 40.5834 14.3885C40.8474 14.3885 41.0794 14.3285 41.2794 14.2085C41.4874 14.0805 41.6514 13.9205 41.7714 13.7285C41.8914 13.5285 41.9514 13.3245 41.9514 13.1165H42.3354C42.3354 13.9325 42.1794 14.5685 41.8674 15.0245C41.5634 15.4805 41.0474 15.7085 40.3194 15.7085ZM44.7738 15.5645V7.16445H46.3578V15.5645H44.7738ZM47.727 15.5645V9.56445H49.215L49.311 10.6685V15.5645H47.727ZM51.699 15.5645V12.4925H53.283V15.5645H51.699ZM51.699 12.4925C51.699 12.0845 51.651 11.7685 51.555 11.5445C51.467 11.3205 51.339 11.1605 51.171 11.0645C51.003 10.9605 50.807 10.9085 50.583 10.9085C50.175 10.9005 49.859 11.0245 49.635 11.2805C49.419 11.5365 49.311 11.9165 49.311 12.4205H48.783C48.783 11.7805 48.875 11.2405 49.059 10.8005C49.251 10.3525 49.515 10.0125 49.851 9.78045C50.195 9.54045 50.595 9.42045 51.051 9.42045C51.523 9.42045 51.927 9.51645 52.263 9.70845C52.599 9.90045 52.855 10.2005 53.031 10.6085C53.207 11.0085 53.291 11.5285 53.283 12.1685V12.4925H51.699ZM55.5832 18.1085C55.3672 18.1085 55.1272 18.0645 54.8632 17.9765C54.6072 17.8965 54.3792 17.8005 54.1792 17.6885L54.7672 16.4045C54.9032 16.4765 55.0272 16.5325 55.1392 16.5725C55.2592 16.6205 55.3632 16.6445 55.4512 16.6445C55.6192 16.6445 55.7672 16.5965 55.8952 16.5005C56.0232 16.4125 56.1272 16.2805 56.2072 16.1045L56.9152 14.4365L58.8232 9.56445H60.5632L57.8392 16.0805C57.6712 16.4805 57.4952 16.8325 57.3112 17.1365C57.1272 17.4485 56.8992 17.6885 56.6272 17.8565C56.3632 18.0245 56.0152 18.1085 55.5832 18.1085ZM56.4952 15.5645L53.7472 9.56445H55.4872L57.4912 14.4365L58.0072 15.5645H56.4952Z" fill="white"/>
</svg>
