<svg width="55" height="55" viewBox="0 0 55 55" fill="none" xmlns="http://www.w3.org/2000/svg">
<rect width="55" height="55" rx="27.5" fill="#009ADF"/>
<path d="M7.57355 38C7.48355 37.31 7.39355 36.71 7.39355 36.11C7.39355 28.43 17.3536 27.2 17.3536 22.97C17.3536 21.11 15.9136 20 14.1136 20C11.6236 20 10.2736 22.52 10.2736 22.52L7.39355 20.6C7.39355 20.6 9.34355 16.34 14.4436 16.34C18.1936 16.34 21.3736 18.62 21.3736 22.64C21.3736 29.48 11.8336 30.65 11.7436 34.67H21.7036V38H7.57355ZM32.7159 38.36C26.8959 38.36 25.0059 33.44 25.0059 27.32C25.0059 21.2 26.8959 16.34 32.7159 16.34C38.5359 16.34 40.4559 21.2 40.4559 27.32C40.4559 33.44 38.5359 38.36 32.7159 38.36ZM32.7159 34.82C35.6259 34.82 36.4659 31.52 36.4659 27.32C36.4659 23.18 35.6259 19.91 32.7159 19.91C29.8059 19.91 28.9659 23.18 28.9659 27.32C28.9659 31.52 29.8059 34.82 32.7159 34.82ZM43.4831 22.91L44.8931 16.34H48.4031L46.1831 22.91H43.4831Z" fill="white"/>
</svg>
