<svg width="55" height="55" viewBox="0 0 55 55" fill="none" xmlns="http://www.w3.org/2000/svg">
<mask id="mask0_572_7013" style="mask-type:alpha" maskUnits="userSpaceOnUse" x="0" y="0" width="55" height="55">
<path d="M27.5 55C42.6878 55 55 42.6878 55 27.5C55 12.3122 42.6878 0 27.5 0C12.3122 0 0 12.3122 0 27.5C0 42.6878 12.3122 55 27.5 55Z" fill="#82368C"/>
</mask>
<g mask="url(#mask0_572_7013)">
<path d="M27.5 55C42.6878 55 55 42.6878 55 27.5C55 12.3122 42.6878 0 27.5 0C12.3122 0 0 12.3122 0 27.5C0 42.6878 12.3122 55 27.5 55Z" fill="#82368C"/>
<path d="M27.3194 37.3633C28.4184 37.3633 29.2941 36.4811 29.2941 35.374C29.2941 34.267 28.4012 33.3848 27.3194 33.3848C26.2376 33.3848 25.3447 34.267 25.3447 35.374C25.3447 36.4811 26.2205 37.3633 27.3194 37.3633Z" fill="white"/>
<path d="M26.0659 58H28.9507L29.6547 50.043H25.3447L26.0659 58Z" fill="white"/>
<path d="M31.0976 40.9959C31.0976 39.5948 29.9643 38.4531 28.5905 38.4531H26.4269C25.0361 38.4531 23.9199 39.5775 23.9199 40.9786V48.5897H31.1147V40.9786L31.0976 40.9959Z" fill="white"/>
<path d="M18.3048 37.3633C19.4038 37.3633 20.2795 36.4811 20.2795 35.374C20.2795 34.267 19.3866 33.3848 18.3048 33.3848C17.223 33.3848 16.3301 34.267 16.3301 35.374C16.3301 36.4811 17.2058 37.3633 18.3048 37.3633Z" fill="white"/>
<path d="M17.0513 58H19.9189L20.6229 50.043H16.3301L17.0513 58Z" fill="white"/>
<path d="M22.0653 40.9959C22.0653 39.5948 20.932 38.4531 19.5583 38.4531H17.3947C16.0038 38.4531 14.8877 39.5775 14.8877 40.9786V48.5897H22.0825V40.9786L22.0653 40.9959Z" fill="white"/>
<path d="M36.0079 37.3633C37.1069 37.3633 37.9826 36.4811 37.9826 35.374C37.9826 34.267 37.0897 33.3848 36.0079 33.3848C34.9261 33.3848 34.0332 34.267 34.0332 35.374C34.0332 36.4811 34.9089 37.3633 36.0079 37.3633Z" fill="white"/>
<path d="M34.7544 58H37.6392L38.3432 50.043H34.0332L34.7544 58Z" fill="white"/>
<path d="M39.786 40.9959C39.786 39.5948 38.6527 38.4531 37.279 38.4531H35.1154C33.7245 38.4531 32.6084 39.5775 32.6084 40.9786V48.5897H39.8032V40.9786L39.786 40.9959Z" fill="white"/>
<path d="M8.59626 28C8.53026 27.494 8.46426 27.054 8.46426 26.614C8.46426 20.982 15.7683 20.08 15.7683 16.978C15.7683 15.614 14.7123 14.8 13.3923 14.8C11.5663 14.8 10.5763 16.648 10.5763 16.648L8.46426 15.24C8.46426 15.24 9.89426 12.116 13.6343 12.116C16.3843 12.116 18.7163 13.788 18.7163 16.736C18.7163 21.752 11.7203 22.61 11.6543 25.558H18.9583V28H8.59626ZM27.034 28.264C22.766 28.264 21.38 24.656 21.38 20.168C21.38 15.68 22.766 12.116 27.034 12.116C31.302 12.116 32.71 15.68 32.71 20.168C32.71 24.656 31.302 28.264 27.034 28.264ZM27.034 25.668C29.168 25.668 29.784 23.248 29.784 20.168C29.784 17.132 29.168 14.734 27.034 14.734C24.9 14.734 24.284 17.132 24.284 20.168C24.284 23.248 24.9 25.668 27.034 25.668ZM34.3139 25.195C34.3139 23.479 35.6889 22.258 37.3939 22.258C39.1099 22.258 40.4849 23.479 40.4849 25.195C40.4849 26.922 39.1099 28.132 37.4049 28.132C35.6889 28.132 34.3139 26.922 34.3139 25.195ZM35.7329 25.195C35.7329 26.24 36.4919 26.944 37.4049 26.944C38.3069 26.944 39.0659 26.24 39.0659 25.195C39.0659 24.161 38.3069 23.446 37.4049 23.446C36.4919 23.446 35.7329 24.161 35.7329 25.195ZM41.1339 27.307L41.7719 26.328C41.7719 26.328 42.3879 26.944 43.3009 26.944C43.6969 26.944 44.0379 26.768 44.0379 26.438C44.0379 25.602 41.3099 25.712 41.3099 23.908C41.3099 22.863 42.2449 22.258 43.4549 22.258C44.7199 22.258 45.3359 22.896 45.3359 22.896L44.8189 23.93C44.8189 23.93 44.3019 23.446 43.4439 23.446C43.0809 23.446 42.7289 23.6 42.7289 23.952C42.7289 24.744 45.4569 24.645 45.4569 26.449C45.4569 27.384 44.6429 28.132 43.3119 28.132C41.9149 28.132 41.1339 27.307 41.1339 27.307ZM46.5255 28V26.603H47.9225V28H46.5255Z" fill="white"/>
</g>
</svg>
