<svg width="55" height="55" viewBox="0 0 55 55" fill="none" xmlns="http://www.w3.org/2000/svg">
<rect width="55" height="55" rx="27.5" fill="#3AAA35"/>
<path d="M6.69465 38C6.60465 37.31 6.51465 36.71 6.51465 36.11C6.51465 28.43 16.4746 27.2 16.4746 22.97C16.4746 21.11 15.0346 20 13.2346 20C10.7446 20 9.39465 22.52 9.39465 22.52L6.51465 20.6C6.51465 20.6 8.46465 16.34 13.5646 16.34C17.3146 16.34 20.4946 18.62 20.4946 22.64C20.4946 29.48 10.9546 30.65 10.8646 34.67H20.8246V38H6.69465ZM22.9933 32.51V30.14L32.1733 16.7H36.7633V29.3H39.5233V32.51H36.7633V38H32.9533V32.51H22.9933ZM27.0733 29.3H32.9533V22.7C32.9533 21.65 33.1033 20.48 33.1033 20.48H33.0433C33.0433 20.48 32.5633 21.62 31.9933 22.43L27.0733 29.24V29.3ZM41.8361 38V27.35H43.7411V31.04C43.7411 31.415 43.7111 31.685 43.7111 31.685H43.7411C44.1161 30.95 45.0461 30.17 46.3811 30.17C48.0761 30.17 49.0361 31.055 49.0361 33.08V38H47.1461V33.47C47.1461 32.54 46.9061 31.91 45.9311 31.91C44.9261 31.91 44.1461 32.57 43.8611 33.5C43.7711 33.8 43.7411 34.13 43.7411 34.49V38H41.8361Z" fill="white"/>
</svg>
