<svg width="55" height="55" viewBox="0 0 55 55" fill="none" xmlns="http://www.w3.org/2000/svg">
<rect width="55" height="55" rx="27.5" fill="#878787"/>
<path d="M8.77555 38L16.7555 21.98C17.4155 20.66 18.0455 20.03 18.0455 20.03V19.97C18.0455 19.97 17.6255 20.03 16.5755 20.03H7.48555V16.7H22.1255V19.4L12.7955 38H8.77555ZM32.1739 38.36C26.3539 38.36 24.4639 33.44 24.4639 27.32C24.4639 21.2 26.3539 16.34 32.1739 16.34C37.9939 16.34 39.9139 21.2 39.9139 27.32C39.9139 33.44 37.9939 38.36 32.1739 38.36ZM32.1739 34.82C35.0839 34.82 35.9239 31.52 35.9239 27.32C35.9239 23.18 35.0839 19.91 32.1739 19.91C29.2639 19.91 28.4239 23.18 28.4239 27.32C28.4239 31.52 29.2639 34.82 32.1739 34.82ZM42.9411 22.91L44.3511 16.34H47.8611L45.6411 22.91H42.9411Z" fill="white"/>
</svg>
