<svg width="55" height="55" viewBox="0 0 55 55" fill="none" xmlns="http://www.w3.org/2000/svg">
<rect width="55" height="55" rx="27.5" fill="#0063AF"/>
<path d="M15.352 38.36C10.912 38.36 7.13199 34.67 7.13199 28.25C7.13199 22.67 10.342 16.34 16.942 16.34C19.642 16.34 21.292 17.24 21.292 17.24L20.152 20.57C20.152 20.57 18.802 19.91 17.152 19.91C13.792 19.91 12.022 22.7 11.482 25.61H11.542C12.292 24.74 14.002 24.11 15.532 24.11C19.732 24.11 22.372 27.38 22.372 31.22C22.372 35.18 19.582 38.36 15.352 38.36ZM15.352 34.82C17.332 34.82 18.532 33.23 18.532 31.22C18.532 29.06 17.182 27.29 14.632 27.29C12.712 27.29 11.152 28.28 11.152 29.6C11.152 32.27 13.102 34.82 15.352 34.82ZM33.0675 38.36C27.2475 38.36 25.3575 33.44 25.3575 27.32C25.3575 21.2 27.2475 16.34 33.0675 16.34C38.8875 16.34 40.8075 21.2 40.8075 27.32C40.8075 33.44 38.8875 38.36 33.0675 38.36ZM33.0675 34.82C35.9775 34.82 36.8175 31.52 36.8175 27.32C36.8175 23.18 35.9775 19.91 33.0675 19.91C30.1575 19.91 29.3175 23.18 29.3175 27.32C29.3175 31.52 30.1575 34.82 33.0675 34.82ZM43.8346 22.91L45.2446 16.34H48.7546L46.5346 22.91H43.8346Z" fill="white"/>
</svg>
