<svg width="55" height="55" viewBox="0 0 55 55" fill="none" xmlns="http://www.w3.org/2000/svg">
<rect width="55" height="55" rx="27.5" fill="#F59D0F"/>
<path d="M5.25406 32.51V30.14L14.4341 16.7H19.0241V29.3H21.7841V32.51H19.0241V38H15.2141V32.51H5.25406ZM9.33406 29.3H15.2141V22.7C15.2141 21.65 15.3641 20.48 15.3641 20.48H15.3041C15.3041 20.48 14.8241 21.62 14.2541 22.43L9.33406 29.24V29.3ZM24.5769 31.82C24.5769 28.79 27.1269 26.78 27.7869 26.33C26.4969 25.34 25.5969 24.05 25.5969 22.16C25.5969 19.22 27.7569 16.34 32.4369 16.34C36.3969 16.34 39.3369 18.56 39.3369 22.25C39.3369 24.89 37.1769 27.26 36.9669 27.5C38.5269 28.49 39.6969 29.84 39.6969 32.03C39.6969 35.3 36.9669 38.36 32.1969 38.36C27.5769 38.36 24.5769 35.48 24.5769 31.82ZM35.7669 31.85C35.7669 29.99 33.0969 29.15 30.5169 27.92C29.8269 28.49 28.5369 29.75 28.5369 31.52C28.5369 33.53 30.2469 34.94 32.1969 34.94C34.1769 34.94 35.7669 33.74 35.7669 31.85ZM29.4069 22.25C29.4069 24.2 31.6869 25.04 34.1169 26.09C34.4169 25.76 35.5569 24.35 35.5569 22.49C35.5569 20.84 34.2969 19.79 32.3769 19.79C30.4269 19.79 29.4069 20.87 29.4069 22.25ZM42.4367 38V27.35H44.3417V31.04C44.3417 31.415 44.3117 31.685 44.3117 31.685H44.3417C44.7167 30.95 45.6467 30.17 46.9817 30.17C48.6767 30.17 49.6367 31.055 49.6367 33.08V38H47.7467V33.47C47.7467 32.54 47.5067 31.91 46.5317 31.91C45.5267 31.91 44.7467 32.57 44.4617 33.5C44.3717 33.8 44.3417 34.13 44.3417 34.49V38H42.4367Z" fill="white"/>
</svg>
