<svg width="55" height="55" viewBox="0 0 55 55" fill="none" xmlns="http://www.w3.org/2000/svg">
<rect width="55" height="55" rx="27.5" fill="#E6332A"/>
<path d="M10.4967 38L18.4767 21.98C19.1367 20.66 19.7667 20.03 19.7667 20.03V19.97C19.7667 19.97 19.3467 20.03 18.2967 20.03H9.20674V16.7H23.8467V19.4L14.5167 38H10.4967ZM25.0001 34.175C25.0001 31.745 26.4401 30.17 28.4651 30.17C30.1451 30.17 30.6701 31.145 30.6701 31.145H30.7001C30.7001 31.145 30.6851 30.95 30.6851 30.71V27.35H32.5901V38H30.7901V37.37C30.7901 37.085 30.8201 36.875 30.8201 36.875H30.7901C30.7901 36.875 30.1451 38.18 28.3901 38.18C26.3201 38.18 25.0001 36.545 25.0001 34.175ZM26.9201 34.175C26.9201 35.63 27.7001 36.575 28.8251 36.575C29.8151 36.575 30.7451 35.855 30.7451 34.16C30.7451 32.975 30.1151 31.805 28.8401 31.805C27.7901 31.805 26.9201 32.66 26.9201 34.175ZM34.695 38V30.35H36.525V31.235C36.525 31.52 36.495 31.76 36.495 31.76H36.525C36.855 31.115 37.695 30.17 39.24 30.17C40.935 30.17 41.895 31.055 41.895 33.08V38H40.005V33.47C40.005 32.54 39.765 31.91 38.79 31.91C37.77 31.91 37.02 32.555 36.735 33.47C36.63 33.785 36.6 34.13 36.6 34.49V38H34.695ZM43.8942 29.045V27.35H45.7842V29.045H43.8942ZM43.8942 38V30.35H45.7992V38H43.8942Z" fill="white"/>
</svg>
