<svg width="55" height="55" viewBox="0 0 55 55" fill="none" xmlns="http://www.w3.org/2000/svg">
<rect width="55" height="55" rx="27.5" fill="#00305F"/>
<path d="M12.262 38.36C9.56199 38.36 7.91199 37.46 7.91199 37.46L9.05199 34.13C9.05199 34.13 10.402 34.82 12.022 34.82C15.382 34.82 17.182 32.03 17.722 29.12H17.662C16.912 29.99 15.172 30.62 13.642 30.62C9.44199 30.62 6.83199 27.32 6.83199 23.48C6.83199 19.55 9.62199 16.34 13.852 16.34C18.292 16.34 22.072 20.03 22.072 26.45C22.072 32.03 18.862 38.36 12.262 38.36ZM14.572 27.44C16.492 27.44 18.052 26.42 18.052 25.13C18.052 22.46 16.072 19.91 13.852 19.91C11.872 19.91 10.642 21.47 10.642 23.48C10.642 25.64 11.992 27.44 14.572 27.44ZM33.0675 38.36C27.2475 38.36 25.3575 33.44 25.3575 27.32C25.3575 21.2 27.2475 16.34 33.0675 16.34C38.8875 16.34 40.8075 21.2 40.8075 27.32C40.8075 33.44 38.8875 38.36 33.0675 38.36ZM33.0675 34.82C35.9775 34.82 36.8175 31.52 36.8175 27.32C36.8175 23.18 35.9775 19.91 33.0675 19.91C30.1575 19.91 29.3175 23.18 29.3175 27.32C29.3175 31.52 30.1575 34.82 33.0675 34.82ZM43.8346 22.91L45.2446 16.34H48.7546L46.5346 22.91H43.8346Z" fill="white"/>
</svg>
