<svg width="55" height="55" viewBox="0 0 55 55" fill="none" xmlns="http://www.w3.org/2000/svg">
<path d="M27.5 55C42.6878 55 55 42.6878 55 27.5C55 12.3122 42.6878 0 27.5 0C12.3122 0 0 12.3122 0 27.5C0 42.6878 12.3122 55 27.5 55Z" fill="#B14D97"/>
<path d="M38.6068 17.0125C39.9973 17.0125 41.1131 15.8967 41.1131 14.5062C41.1131 13.1158 39.9801 12 38.6068 12C37.2335 12 36.1006 13.1158 36.1006 14.5062C36.1006 15.8967 37.2164 17.0125 38.6068 17.0125Z" fill="white"/>
<path d="M37.0104 42.9844H40.6496L41.5594 32.9766H36.1006L37.0104 42.9844Z" fill="white"/>
<path d="M43.3959 21.5776C43.3959 19.8095 41.9711 18.3848 40.203 18.3848H37.4736C35.7055 18.3848 34.2808 19.8095 34.2808 21.5605V31.1391H43.3959V21.5605V21.5776Z" fill="white"/>
<path d="M16.4625 17.0807C17.8701 17.0807 19.003 15.9478 19.003 14.523C19.003 13.0982 17.8701 11.9824 16.4625 11.9824C15.0548 11.9824 13.9219 13.1154 13.9219 14.523C13.9219 15.9306 15.0548 17.0807 16.4625 17.0807Z" fill="white"/>
<path d="M15.3117 42.9837H16.2387H17.1657H17.6291L18.5561 34.6582H14.3848L15.3117 42.9837Z" fill="white"/>
<path d="M20.4101 26.9507V21.7151C20.4101 19.9298 18.951 18.4707 17.1829 18.4707H15.7925C14.0072 18.4707 12.5653 19.9127 12.5481 21.6979V26.9507C10.6083 28.1867 9.30371 30.3324 9.30371 32.8043H23.6545C23.6545 30.3324 22.3499 28.1695 20.4101 26.9507Z" fill="white"/>
<path d="M28.238 26.6078C29.1134 26.6078 29.8172 25.904 29.8172 25.0285C29.8172 24.153 29.1134 23.4492 28.238 23.4492C27.3625 23.4492 26.6587 24.153 26.6587 25.0285C26.6587 25.904 27.3625 26.6078 28.238 26.6078Z" fill="white"/>
<path d="M27.2257 42.9851H29.5259L30.0924 36.668H26.6592L27.2257 42.9851Z" fill="white"/>
<path d="M31.2422 29.4908C31.2422 28.3751 30.3496 27.4824 29.2338 27.4824H27.5172C26.4014 27.4824 25.5088 28.3751 25.5088 29.4908V35.5333H31.2594V29.4908H31.2422Z" fill="white"/>
</svg>
