<svg width="55" height="55" viewBox="0 0 55 55" fill="none" xmlns="http://www.w3.org/2000/svg">
<rect width="55" height="55" rx="27.5" fill="#E67232"/>
<path d="M8.38004 38L16.36 21.98C17.02 20.66 17.65 20.03 17.65 20.03V19.97C17.65 19.97 17.23 20.03 16.18 20.03H7.09004V16.7H21.73V19.4L12.4 38H8.38004ZM24.0384 38C23.9484 37.31 23.8584 36.71 23.8584 36.11C23.8584 28.43 33.8184 27.2 33.8184 22.97C33.8184 21.11 32.3784 20 30.5784 20C28.0884 20 26.7384 22.52 26.7384 22.52L23.8584 20.6C23.8584 20.6 25.8084 16.34 30.9084 16.34C34.6584 16.34 37.8384 18.62 37.8384 22.64C37.8384 29.48 28.2984 30.65 28.2084 34.67H38.1684V38H24.0384ZM40.8107 38V27.35H42.7157V31.04C42.7157 31.415 42.6857 31.685 42.6857 31.685H42.7157C43.0907 30.95 44.0207 30.17 45.3557 30.17C47.0507 30.17 48.0107 31.055 48.0107 33.08V38H46.1207V33.47C46.1207 32.54 45.8807 31.91 44.9057 31.91C43.9007 31.91 43.1207 32.57 42.8357 33.5C42.7457 33.8 42.7157 34.13 42.7157 34.49V38H40.8107Z" fill="white"/>
</svg>
