<svg width="70" height="23" viewBox="0 0 70 23" fill="none" xmlns="http://www.w3.org/2000/svg">
<rect x="1" y="1" width="68" height="20.5" rx="10.25" stroke="#00305F" stroke-width="2"/>
<rect width="70" height="23" rx="11.5" fill="#00305F"/>
<path d="M11.0541 15V8H12.4241V15H11.0541ZM19.9976 14.33V9.71H21.0676V14.33H19.9976ZM18.2176 12.56V11.49H22.8376V12.56H18.2176ZM28.6287 15V8H29.9987V15H28.6287ZM32.4194 15V8H33.7894V15H32.4194ZM41.3628 14.33V9.71H42.4328V14.33H41.3628ZM39.5828 12.56V11.49H44.2028V12.56H39.5828ZM49.994 15V8H51.364V15H49.994ZM53.7846 15V8H55.1546V15H53.7846ZM57.5752 15V8H58.9452V15H57.5752Z" fill="white"/>
</svg>
