<svg width="1064" height="176" viewBox="0 0 1064 176" fill="none" xmlns="http://www.w3.org/2000/svg">
<rect width="192" height="176" rx="6" fill="#00305F"/>
<path d="M50.1883 97L53.0519 79.5455H55.7792L52.9156 97H50.1883ZM42.373 92.6705L42.8247 89.9432H56.461L56.0093 92.6705H42.373ZM44.0519 97L46.9156 79.5455H49.6429L46.7792 97H44.0519ZM43.3701 86.6023L43.8304 83.875H57.4667L57.0065 86.6023H43.3701ZM65.5143 97.3835C64.0484 97.3778 62.787 97.017 61.7302 96.3011C60.679 95.5852 59.8694 94.5483 59.3012 93.1903C58.7387 91.8324 58.4603 90.1989 58.466 88.2898C58.466 86.3864 58.7472 84.7642 59.3097 83.4233C59.8779 82.0824 60.6876 81.0625 61.7387 80.3636C62.7955 79.6591 64.054 79.3068 65.5143 79.3068C66.9745 79.3068 68.2302 79.6591 69.2813 80.3636C70.3381 81.0682 71.1506 82.0909 71.7188 83.4318C72.287 84.767 72.5682 86.3864 72.5626 88.2898C72.5626 90.2045 72.2785 91.8409 71.7103 93.1989C71.1478 94.5568 70.341 95.5937 69.2898 96.3097C68.2387 97.0256 66.9802 97.3835 65.5143 97.3835ZM65.5143 94.3239C66.5143 94.3239 67.3126 93.821 67.9092 92.8153C68.5057 91.8097 68.8012 90.3011 68.7955 88.2898C68.7955 86.9659 68.6592 85.8636 68.3864 84.983C68.1194 84.1023 67.7387 83.4403 67.2444 82.9972C66.7557 82.554 66.179 82.3324 65.5143 82.3324C64.52 82.3324 63.7245 82.8295 63.1279 83.8239C62.5313 84.8182 62.2302 86.3068 62.2245 88.2898C62.2245 89.6307 62.358 90.75 62.6251 91.6477C62.8978 92.5398 63.2813 93.2102 63.7756 93.6591C64.27 94.1023 64.8495 94.3239 65.5143 94.3239ZM81.5817 97.3835C80.1158 97.3778 78.8544 97.017 77.7976 96.3011C76.7465 95.5852 75.9368 94.5483 75.3686 93.1903C74.8061 91.8324 74.5277 90.1989 74.5334 88.2898C74.5334 86.3864 74.8147 84.7642 75.3772 83.4233C75.9453 82.0824 76.755 81.0625 77.8061 80.3636C78.863 79.6591 80.1215 79.3068 81.5817 79.3068C83.0419 79.3068 84.2976 79.6591 85.3488 80.3636C86.4056 81.0682 87.2181 82.0909 87.7863 83.4318C88.3544 84.767 88.6357 86.3864 88.63 88.2898C88.63 90.2045 88.3459 91.8409 87.7777 93.1989C87.2152 94.5568 86.4084 95.5937 85.3573 96.3097C84.3061 97.0256 83.0476 97.3835 81.5817 97.3835ZM81.5817 94.3239C82.5817 94.3239 83.38 93.821 83.9766 92.8153C84.5732 91.8097 84.8686 90.3011 84.863 88.2898C84.863 86.9659 84.7266 85.8636 84.4539 84.983C84.1868 84.1023 83.8061 83.4403 83.3118 82.9972C82.8232 82.554 82.2465 82.3324 81.5817 82.3324C80.5874 82.3324 79.7919 82.8295 79.1953 83.8239C78.5988 84.8182 78.2976 86.3068 78.2919 88.2898C78.2919 89.6307 78.4255 90.75 78.6925 91.6477C78.9652 92.5398 79.3488 93.2102 79.8431 93.6591C80.3374 94.1023 80.9169 94.3239 81.5817 94.3239ZM97.2571 97.2386C95.9844 97.2386 94.8509 97.0199 93.8565 96.5824C92.8679 96.1392 92.0866 95.5312 91.5128 94.7585C90.9446 93.9801 90.652 93.0824 90.6349 92.0653H94.3509C94.3736 92.4915 94.5128 92.8665 94.7685 93.1903C95.0298 93.5085 95.3764 93.7557 95.8082 93.9318C96.2401 94.108 96.7259 94.196 97.2656 94.196C97.8281 94.196 98.3253 94.0966 98.7571 93.8977C99.1889 93.6989 99.527 93.4233 99.7713 93.071C100.016 92.7187 100.138 92.3125 100.138 91.8523C100.138 91.3864 100.007 90.9744 99.7457 90.6165C99.4901 90.2528 99.1207 89.9687 98.6378 89.7642C98.1605 89.5597 97.5923 89.4574 96.9332 89.4574H95.3054V86.7472H96.9332C97.4901 86.7472 97.9815 86.6506 98.4077 86.4574C98.8395 86.2642 99.1747 85.9972 99.4134 85.6562C99.652 85.3097 99.7713 84.9062 99.7713 84.446C99.7713 84.0085 99.6662 83.625 99.456 83.2955C99.2514 82.9602 98.9616 82.6989 98.5866 82.5114C98.2173 82.3239 97.7855 82.2301 97.2912 82.2301C96.7912 82.2301 96.3338 82.321 95.919 82.5028C95.5043 82.679 95.1719 82.9318 94.9219 83.2614C94.6719 83.5909 94.5384 83.9773 94.5213 84.4205H90.9844C91.0014 83.4148 91.2884 82.5284 91.8452 81.7614C92.402 80.9943 93.152 80.3949 94.0952 79.9631C95.044 79.5256 96.1151 79.3068 97.3082 79.3068C98.5128 79.3068 99.5668 79.5256 100.47 79.9631C101.374 80.4006 102.075 80.9915 102.575 81.7358C103.081 82.4744 103.331 83.304 103.325 84.2244C103.331 85.2017 103.027 86.017 102.413 86.6705C101.805 87.3239 101.013 87.7386 100.036 87.9148V88.0511C101.32 88.2159 102.297 88.6619 102.967 89.3892C103.643 90.1108 103.979 91.0142 103.973 92.0994C103.979 93.0938 103.692 93.9773 103.112 94.75C102.538 95.5227 101.746 96.1307 100.734 96.5739C99.723 97.017 98.5639 97.2386 97.2571 97.2386ZM113.013 97.3835C111.548 97.3778 110.286 97.017 109.229 96.3011C108.178 95.5852 107.369 94.5483 106.8 93.1903C106.238 91.8324 105.959 90.1989 105.965 88.2898C105.965 86.3864 106.246 84.7642 106.809 83.4233C107.377 82.0824 108.187 81.0625 109.238 80.3636C110.295 79.6591 111.553 79.3068 113.013 79.3068C114.474 79.3068 115.729 79.6591 116.781 80.3636C117.837 81.0682 118.65 82.0909 119.218 83.4318C119.786 84.767 120.067 86.3864 120.062 88.2898C120.062 90.2045 119.778 91.8409 119.209 93.1989C118.647 94.5568 117.84 95.5937 116.789 96.3097C115.738 97.0256 114.479 97.3835 113.013 97.3835ZM113.013 94.3239C114.013 94.3239 114.812 93.821 115.408 92.8153C116.005 91.8097 116.3 90.3011 116.295 88.2898C116.295 86.9659 116.158 85.8636 115.886 84.983C115.619 84.1023 115.238 83.4403 114.744 82.9972C114.255 82.554 113.678 82.3324 113.013 82.3324C112.019 82.3324 111.224 82.8295 110.627 83.8239C110.031 84.8182 109.729 86.3068 109.724 88.2898C109.724 89.6307 109.857 90.75 110.124 91.6477C110.397 92.5398 110.781 93.2102 111.275 93.6591C111.769 94.1023 112.349 94.3239 113.013 94.3239ZM128.612 97.2386C127.408 97.2386 126.334 97.017 125.391 96.5739C124.453 96.1307 123.709 95.5199 123.158 94.7415C122.606 93.9631 122.32 93.071 122.297 92.0653H125.876C125.916 92.7415 126.2 93.2898 126.729 93.7102C127.257 94.1307 127.885 94.3409 128.612 94.3409C129.192 94.3409 129.703 94.2131 130.146 93.9574C130.595 93.696 130.945 93.3352 131.195 92.875C131.45 92.4091 131.578 91.875 131.578 91.2727C131.578 90.6591 131.447 90.1193 131.186 89.6534C130.93 89.1875 130.575 88.8239 130.121 88.5625C129.666 88.3011 129.146 88.1676 128.561 88.1619C128.05 88.1619 127.552 88.267 127.07 88.4773C126.592 88.6875 126.22 88.9744 125.953 89.3381L122.672 88.75L123.499 79.5455H134.169V82.5625H126.541L126.089 86.9347H126.192C126.499 86.5028 126.962 86.1449 127.581 85.8608C128.2 85.5767 128.893 85.4347 129.66 85.4347C130.712 85.4347 131.649 85.6818 132.473 86.1761C133.297 86.6705 133.947 87.3494 134.425 88.2131C134.902 89.071 135.138 90.0597 135.132 91.179C135.138 92.3551 134.865 93.4006 134.314 94.3153C133.768 95.2244 133.004 95.9403 132.021 96.4631C131.044 96.9801 129.908 97.2386 128.612 97.2386ZM137.352 97V79.5455H148.909V82.5881H141.043V86.7472H148.142V89.7898H141.043V97H137.352Z" fill="white"/>
<rect x="218" width="192" height="176" rx="6" fill="#9D9D9C"/>
<path d="M265.388 97L268.251 79.5455H270.978L268.115 97H265.388ZM257.572 92.6705L258.024 89.9432H271.66L271.209 92.6705H257.572ZM259.251 97L262.115 79.5455H264.842L261.978 97H259.251ZM258.569 86.6023L259.03 83.875H272.666L272.206 86.6023H258.569ZM280.185 79.3068C281.083 79.3068 281.946 79.4574 282.776 79.7585C283.611 80.0597 284.356 80.5398 285.009 81.1989C285.668 81.858 286.188 82.733 286.569 83.8239C286.955 84.9091 287.151 86.2415 287.157 87.821C287.157 89.304 286.989 90.6278 286.654 91.7926C286.324 92.9517 285.85 93.9375 285.231 94.75C284.611 95.5625 283.864 96.1818 282.989 96.608C282.114 97.0284 281.137 97.2386 280.057 97.2386C278.892 97.2386 277.864 97.0142 276.972 96.5653C276.08 96.1108 275.361 95.4943 274.816 94.7159C274.276 93.9318 273.949 93.0511 273.836 92.0739H277.475C277.617 92.7102 277.915 93.2045 278.37 93.5568C278.824 93.9034 279.387 94.0767 280.057 94.0767C281.194 94.0767 282.057 93.5824 282.648 92.5938C283.239 91.5994 283.537 90.2386 283.543 88.5114H283.424C283.162 89.0227 282.81 89.4631 282.367 89.8324C281.924 90.196 281.415 90.4773 280.841 90.6761C280.273 90.875 279.668 90.9744 279.026 90.9744C277.998 90.9744 277.08 90.733 276.273 90.25C275.466 89.767 274.83 89.1023 274.364 88.2557C273.898 87.4091 273.665 86.4432 273.665 85.358C273.66 84.1875 273.929 83.1449 274.475 82.2301C275.02 81.3153 275.782 80.5994 276.759 80.0824C277.742 79.5597 278.884 79.3011 280.185 79.3068ZM280.211 82.2045C279.637 82.2045 279.125 82.3409 278.677 82.6136C278.233 82.8864 277.881 83.2528 277.62 83.7131C277.364 84.1733 277.239 84.6875 277.245 85.2557C277.245 85.8295 277.37 86.3466 277.62 86.8068C277.875 87.2614 278.222 87.625 278.66 87.8977C279.103 88.1648 279.608 88.2983 280.177 88.2983C280.603 88.2983 280.998 88.2187 281.361 88.0597C281.725 87.9006 282.04 87.6818 282.307 87.4034C282.58 87.1193 282.793 86.7926 282.946 86.4233C283.1 86.054 283.177 85.6619 283.177 85.2472C283.171 84.696 283.04 84.1903 282.785 83.7301C282.529 83.2699 282.177 82.9006 281.728 82.6222C281.279 82.3437 280.773 82.2045 280.211 82.2045ZM295.547 97H289.36V79.5455H295.598C297.354 79.5455 298.865 79.8949 300.132 80.5938C301.4 81.2869 302.374 82.2841 303.056 83.5852C303.743 84.8864 304.087 86.4432 304.087 88.2557C304.087 90.0739 303.743 91.6364 303.056 92.9432C302.374 94.25 301.394 95.2528 300.115 95.9517C298.843 96.6506 297.32 97 295.547 97ZM293.05 93.8381H295.394C296.485 93.8381 297.402 93.6449 298.147 93.2585C298.897 92.8665 299.459 92.2614 299.834 91.4432C300.215 90.6193 300.405 89.5568 300.405 88.2557C300.405 86.9659 300.215 85.9119 299.834 85.0938C299.459 84.2756 298.9 83.6733 298.155 83.2869C297.411 82.9006 296.493 82.7074 295.402 82.7074H293.05V93.8381ZM312.578 79.3068C313.475 79.3068 314.339 79.4574 315.169 79.7585C316.004 80.0597 316.748 80.5398 317.402 81.1989C318.061 81.858 318.581 82.733 318.961 83.8239C319.348 84.9091 319.544 86.2415 319.549 87.821C319.549 89.304 319.382 90.6278 319.047 91.7926C318.717 92.9517 318.243 93.9375 317.623 94.75C317.004 95.5625 316.257 96.1818 315.382 96.608C314.507 97.0284 313.529 97.2386 312.45 97.2386C311.285 97.2386 310.257 97.0142 309.365 96.5653C308.473 96.1108 307.754 95.4943 307.208 94.7159C306.669 93.9318 306.342 93.0511 306.228 92.0739H309.868C310.01 92.7102 310.308 93.2045 310.762 93.5568C311.217 93.9034 311.779 94.0767 312.45 94.0767C313.586 94.0767 314.45 93.5824 315.041 92.5938C315.632 91.5994 315.93 90.2386 315.936 88.5114H315.816C315.555 89.0227 315.203 89.4631 314.76 89.8324C314.316 90.196 313.808 90.4773 313.234 90.6761C312.666 90.875 312.061 90.9744 311.419 90.9744C310.39 90.9744 309.473 90.733 308.666 90.25C307.859 89.767 307.223 89.1023 306.757 88.2557C306.291 87.4091 306.058 86.4432 306.058 85.358C306.052 84.1875 306.322 83.1449 306.868 82.2301C307.413 81.3153 308.174 80.5994 309.152 80.0824C310.135 79.5597 311.277 79.3011 312.578 79.3068ZM312.603 82.2045C312.029 82.2045 311.518 82.3409 311.069 82.6136C310.626 82.8864 310.274 83.2528 310.012 83.7131C309.757 84.1733 309.632 84.6875 309.637 85.2557C309.637 85.8295 309.762 86.3466 310.012 86.8068C310.268 87.2614 310.615 87.625 311.052 87.8977C311.495 88.1648 312.001 88.2983 312.569 88.2983C312.995 88.2983 313.39 88.2187 313.754 88.0597C314.118 87.9006 314.433 87.6818 314.7 87.4034C314.973 87.1193 315.186 86.7926 315.339 86.4233C315.493 86.054 315.569 85.6619 315.569 85.2472C315.564 84.696 315.433 84.1903 315.177 83.7301C314.922 83.2699 314.569 82.9006 314.12 82.6222C313.672 82.3437 313.166 82.2045 312.603 82.2045ZM327.94 97H321.752V79.5455H327.991C329.747 79.5455 331.258 79.8949 332.525 80.5938C333.792 81.2869 334.767 82.2841 335.448 83.5852C336.136 84.8864 336.48 86.4432 336.48 88.2557C336.48 90.0739 336.136 91.6364 335.448 92.9432C334.767 94.25 333.787 95.2528 332.508 95.9517C331.235 96.6506 329.713 97 327.94 97ZM325.443 93.8381H327.787C328.877 93.8381 329.795 93.6449 330.539 93.2585C331.289 92.8665 331.852 92.2614 332.227 91.4432C332.608 90.6193 332.798 89.5568 332.798 88.2557C332.798 86.9659 332.608 85.9119 332.227 85.0938C331.852 84.2756 331.292 83.6733 330.548 83.2869C329.804 82.9006 328.886 82.7074 327.795 82.7074H325.443V93.8381ZM344.97 79.3068C345.868 79.3068 346.732 79.4574 347.561 79.7585C348.397 80.0597 349.141 80.5398 349.794 81.1989C350.453 81.858 350.973 82.733 351.354 83.8239C351.74 84.9091 351.936 86.2415 351.942 87.821C351.942 89.304 351.774 90.6278 351.439 91.7926C351.11 92.9517 350.635 93.9375 350.016 94.75C349.397 95.5625 348.649 96.1818 347.774 96.608C346.899 97.0284 345.922 97.2386 344.843 97.2386C343.678 97.2386 342.649 97.0142 341.757 96.5653C340.865 96.1108 340.147 95.4943 339.601 94.7159C339.061 93.9318 338.735 93.0511 338.621 92.0739H342.26C342.402 92.7102 342.701 93.2045 343.155 93.5568C343.61 93.9034 344.172 94.0767 344.843 94.0767C345.979 94.0767 346.843 93.5824 347.434 92.5938C348.024 91.5994 348.323 90.2386 348.328 88.5114H348.209C347.948 89.0227 347.595 89.4631 347.152 89.8324C346.709 90.196 346.201 90.4773 345.627 90.6761C345.059 90.875 344.453 90.9744 343.811 90.9744C342.783 90.9744 341.865 90.733 341.059 90.25C340.252 89.767 339.615 89.1023 339.149 88.2557C338.684 87.4091 338.451 86.4432 338.451 85.358C338.445 84.1875 338.715 83.1449 339.26 82.2301C339.806 81.3153 340.567 80.5994 341.544 80.0824C342.527 79.5597 343.669 79.3011 344.97 79.3068ZM344.996 82.2045C344.422 82.2045 343.911 82.3409 343.462 82.6136C343.019 82.8864 342.666 83.2528 342.405 83.7131C342.149 84.1733 342.024 84.6875 342.03 85.2557C342.03 85.8295 342.155 86.3466 342.405 86.8068C342.661 87.2614 343.007 87.625 343.445 87.8977C343.888 88.1648 344.394 88.2983 344.962 88.2983C345.388 88.2983 345.783 88.2187 346.147 88.0597C346.51 87.9006 346.826 87.6818 347.093 87.4034C347.365 87.1193 347.578 86.7926 347.732 86.4233C347.885 86.054 347.962 85.6619 347.962 85.2472C347.956 84.696 347.826 84.1903 347.57 83.7301C347.314 83.2699 346.962 82.9006 346.513 82.6222C346.064 82.3437 345.559 82.2045 344.996 82.2045ZM369.546 85.6562H365.813C365.745 85.1733 365.605 84.7443 365.395 84.3693C365.185 83.9886 364.915 83.6648 364.585 83.3977C364.256 83.1307 363.875 82.9261 363.443 82.7841C363.017 82.642 362.554 82.571 362.054 82.571C361.151 82.571 360.364 82.7955 359.693 83.2443C359.023 83.6875 358.503 84.3352 358.134 85.1875C357.764 86.0341 357.58 87.0625 357.58 88.2727C357.58 89.517 357.764 90.5625 358.134 91.4091C358.509 92.2557 359.032 92.8949 359.702 93.3267C360.372 93.7585 361.148 93.9744 362.029 93.9744C362.523 93.9744 362.98 93.9091 363.401 93.7784C363.827 93.6477 364.205 93.4574 364.534 93.2074C364.864 92.9517 365.137 92.642 365.353 92.2784C365.574 91.9148 365.728 91.5 365.813 91.0341L369.546 91.0511C369.449 91.8523 369.208 92.625 368.821 93.3693C368.441 94.108 367.926 94.7699 367.279 95.3551C366.637 95.9347 365.87 96.3949 364.978 96.7358C364.091 97.071 363.088 97.2386 361.969 97.2386C360.412 97.2386 359.02 96.8864 357.793 96.1818C356.571 95.4773 355.605 94.4574 354.895 93.1222C354.191 91.7869 353.838 90.1705 353.838 88.2727C353.838 86.3693 354.196 84.75 354.912 83.4148C355.628 82.0795 356.6 81.0625 357.827 80.3636C359.054 79.6591 360.435 79.3068 361.969 79.3068C362.98 79.3068 363.918 79.4489 364.782 79.733C365.651 80.017 366.421 80.4318 367.091 80.9773C367.762 81.517 368.307 82.179 368.728 82.9631C369.154 83.7472 369.426 84.6449 369.546 85.6562Z" fill="white"/>
<rect x="436" width="192" height="176" rx="6" fill="#E6E6E6"/>
<path d="M487.829 97L490.693 79.5455H493.42L490.556 97H487.829ZM480.014 92.6705L480.465 89.9432H494.102L493.65 92.6705H480.014ZM481.693 97L484.556 79.5455H487.283L484.42 97H481.693ZM481.011 86.6023L481.471 83.875H495.107L494.647 86.6023H481.011ZM496.413 97V79.5455H508.175V82.5881H500.104V86.7472H507.57V89.7898H500.104V93.9574H508.209V97H496.413ZM517.249 97.2386C516.352 97.233 515.485 97.0824 514.65 96.7869C513.82 96.4915 513.076 96.0114 512.417 95.3466C511.758 94.6818 511.235 93.8011 510.849 92.7045C510.468 91.608 510.278 90.2614 510.278 88.6648C510.283 87.1989 510.451 85.8892 510.781 84.7358C511.116 83.5767 511.593 82.5937 512.212 81.7869C512.837 80.9801 513.585 80.3665 514.454 79.946C515.323 79.5199 516.298 79.3068 517.377 79.3068C518.542 79.3068 519.57 79.5341 520.462 79.9886C521.354 80.4375 522.07 81.0483 522.61 81.821C523.156 82.5938 523.485 83.4602 523.599 84.4205H519.96C519.818 83.8125 519.519 83.3352 519.065 82.9886C518.61 82.642 518.048 82.4688 517.377 82.4688C516.241 82.4688 515.377 82.9631 514.786 83.9517C514.201 84.9403 513.903 86.2841 513.891 87.983H514.011C514.272 87.4659 514.624 87.0256 515.068 86.6619C515.516 86.2926 516.025 86.0114 516.593 85.8182C517.167 85.6193 517.772 85.5199 518.408 85.5199C519.443 85.5199 520.363 85.7642 521.17 86.2528C521.977 86.7358 522.613 87.4006 523.079 88.2472C523.545 89.0937 523.778 90.0625 523.778 91.1534C523.778 92.3352 523.502 93.3864 522.951 94.3068C522.406 95.2273 521.641 95.9489 520.658 96.4716C519.681 96.9886 518.545 97.2443 517.249 97.2386ZM517.232 94.3409C517.8 94.3409 518.309 94.2045 518.758 93.9318C519.207 93.6591 519.559 93.2898 519.815 92.8239C520.07 92.358 520.198 91.8352 520.198 91.2557C520.198 90.6761 520.07 90.1562 519.815 89.696C519.565 89.2358 519.218 88.8693 518.775 88.5966C518.332 88.3239 517.826 88.1875 517.258 88.1875C516.832 88.1875 516.437 88.267 516.073 88.4261C515.715 88.5852 515.4 88.8068 515.127 89.0909C514.86 89.375 514.65 89.7045 514.496 90.0795C514.343 90.4489 514.266 90.8437 514.266 91.2642C514.266 91.8267 514.394 92.3409 514.65 92.8068C514.911 93.2727 515.264 93.6449 515.707 93.9233C516.156 94.2017 516.664 94.3409 517.232 94.3409ZM526.04 97V79.5455H537.802V82.5881H529.731V86.7472H537.197V89.7898H529.731V93.9574H537.836V97H526.04ZM546.876 97.2386C545.979 97.233 545.112 97.0824 544.277 96.7869C543.447 96.4915 542.703 96.0114 542.044 95.3466C541.385 94.6818 540.862 93.8011 540.476 92.7045C540.095 91.608 539.905 90.2614 539.905 88.6648C539.91 87.1989 540.078 85.8892 540.408 84.7358C540.743 83.5767 541.22 82.5937 541.839 81.7869C542.464 80.9801 543.212 80.3665 544.081 79.946C544.95 79.5199 545.925 79.3068 547.004 79.3068C548.169 79.3068 549.197 79.5341 550.089 79.9886C550.981 80.4375 551.697 81.0483 552.237 81.821C552.783 82.5938 553.112 83.4602 553.226 84.4205H549.587C549.445 83.8125 549.146 83.3352 548.692 82.9886C548.237 82.642 547.675 82.4688 547.004 82.4688C545.868 82.4688 545.004 82.9631 544.413 83.9517C543.828 84.9403 543.53 86.2841 543.518 87.983H543.638C543.899 87.4659 544.251 87.0256 544.695 86.6619C545.143 86.2926 545.652 86.0114 546.22 85.8182C546.794 85.6193 547.399 85.5199 548.035 85.5199C549.07 85.5199 549.99 85.7642 550.797 86.2528C551.604 86.7358 552.24 87.4006 552.706 88.2472C553.172 89.0937 553.405 90.0625 553.405 91.1534C553.405 92.3352 553.129 93.3864 552.578 94.3068C552.033 95.2273 551.268 95.9489 550.285 96.4716C549.308 96.9886 548.172 97.2443 546.876 97.2386ZM546.859 94.3409C547.428 94.3409 547.936 94.2045 548.385 93.9318C548.834 93.6591 549.186 93.2898 549.442 92.8239C549.697 92.358 549.825 91.8352 549.825 91.2557C549.825 90.6761 549.697 90.1562 549.442 89.696C549.192 89.2358 548.845 88.8693 548.402 88.5966C547.959 88.3239 547.453 88.1875 546.885 88.1875C546.459 88.1875 546.064 88.267 545.7 88.4261C545.342 88.5852 545.027 88.8068 544.754 89.0909C544.487 89.375 544.277 89.7045 544.124 90.0795C543.97 90.4489 543.893 90.8437 543.893 91.2642C543.893 91.8267 544.021 92.3409 544.277 92.8068C544.538 93.2727 544.891 93.6449 545.334 93.9233C545.783 94.2017 546.291 94.3409 546.859 94.3409ZM555.668 97V79.5455H567.429V82.5881H559.358V86.7472H566.824V89.7898H559.358V93.9574H567.463V97H555.668ZM576.503 97.2386C575.606 97.233 574.739 97.0824 573.904 96.7869C573.074 96.4915 572.33 96.0114 571.671 95.3466C571.012 94.6818 570.489 93.8011 570.103 92.7045C569.722 91.608 569.532 90.2614 569.532 88.6648C569.538 87.1989 569.705 85.8892 570.035 84.7358C570.37 83.5767 570.847 82.5937 571.467 81.7869C572.092 80.9801 572.839 80.3665 573.708 79.946C574.577 79.5199 575.552 79.3068 576.631 79.3068C577.796 79.3068 578.824 79.5341 579.717 79.9886C580.609 80.4375 581.324 81.0483 581.864 81.821C582.41 82.5938 582.739 83.4602 582.853 84.4205H579.214C579.072 83.8125 578.773 83.3352 578.319 82.9886C577.864 82.642 577.302 82.4688 576.631 82.4688C575.495 82.4688 574.631 82.9631 574.04 83.9517C573.455 84.9403 573.157 86.2841 573.145 87.983H573.265C573.526 87.4659 573.878 87.0256 574.322 86.6619C574.77 86.2926 575.279 86.0114 575.847 85.8182C576.421 85.6193 577.026 85.5199 577.663 85.5199C578.697 85.5199 579.617 85.7642 580.424 86.2528C581.231 86.7358 581.867 87.4006 582.333 88.2472C582.799 89.0937 583.032 90.0625 583.032 91.1534C583.032 92.3352 582.756 93.3864 582.205 94.3068C581.66 95.2273 580.895 95.9489 579.913 96.4716C578.935 96.9886 577.799 97.2443 576.503 97.2386ZM576.486 94.3409C577.055 94.3409 577.563 94.2045 578.012 93.9318C578.461 93.6591 578.813 93.2898 579.069 92.8239C579.324 92.358 579.452 91.8352 579.452 91.2557C579.452 90.6761 579.324 90.1562 579.069 89.696C578.819 89.2358 578.472 88.8693 578.029 88.5966C577.586 88.3239 577.08 88.1875 576.512 88.1875C576.086 88.1875 575.691 88.267 575.327 88.4261C574.969 88.5852 574.654 88.8068 574.381 89.0909C574.114 89.375 573.904 89.7045 573.751 90.0795C573.597 90.4489 573.52 90.8437 573.52 91.2642C573.52 91.8267 573.648 92.3409 573.904 92.8068C574.165 93.2727 574.518 93.6449 574.961 93.9233C575.41 94.2017 575.918 94.3409 576.486 94.3409Z" fill="black" fill-opacity="0.8"/>
<rect x="654" width="192" height="176" rx="6" fill="#65A930"/>
<path d="M702.911 97L705.775 79.5455H708.502L705.638 97H702.911ZM695.096 92.6705L695.547 89.9432H709.184L708.732 92.6705H695.096ZM696.775 97L699.638 79.5455H702.366L699.502 97H696.775ZM696.093 86.6023L696.553 83.875H710.189L709.729 86.6023H696.093ZM718.092 97.2386C717.194 97.233 716.328 97.0824 715.493 96.7869C714.663 96.4915 713.919 96.0114 713.26 95.3466C712.601 94.6818 712.078 93.8011 711.691 92.7045C711.311 91.608 711.12 90.2614 711.12 88.6648C711.126 87.1989 711.294 85.8892 711.623 84.7358C711.959 83.5767 712.436 82.5937 713.055 81.7869C713.68 80.9801 714.427 80.3665 715.297 79.946C716.166 79.5199 717.14 79.3068 718.22 79.3068C719.385 79.3068 720.413 79.5341 721.305 79.9886C722.197 80.4375 722.913 81.0483 723.453 81.821C723.998 82.5938 724.328 83.4602 724.441 84.4205H720.802C720.66 83.8125 720.362 83.3352 719.907 82.9886C719.453 82.642 718.89 82.4688 718.22 82.4688C717.084 82.4688 716.22 82.9631 715.629 83.9517C715.044 84.9403 714.745 86.2841 714.734 87.983H714.853C715.115 87.4659 715.467 87.0256 715.91 86.6619C716.359 86.2926 716.868 86.0114 717.436 85.8182C718.01 85.6193 718.615 85.5199 719.251 85.5199C720.285 85.5199 721.206 85.7642 722.012 86.2528C722.819 86.7358 723.456 87.4006 723.922 88.2472C724.387 89.0937 724.62 90.0625 724.62 91.1534C724.62 92.3352 724.345 93.3864 723.794 94.3068C723.248 95.2273 722.484 95.9489 721.501 96.4716C720.524 96.9886 719.387 97.2443 718.092 97.2386ZM718.075 94.3409C718.643 94.3409 719.152 94.2045 719.601 93.9318C720.049 93.6591 720.402 93.2898 720.657 92.8239C720.913 92.358 721.041 91.8352 721.041 91.2557C721.041 90.6761 720.913 90.1562 720.657 89.696C720.407 89.2358 720.061 88.8693 719.618 88.5966C719.174 88.3239 718.669 88.1875 718.101 88.1875C717.674 88.1875 717.28 88.267 716.916 88.4261C716.558 88.5852 716.243 88.8068 715.97 89.0909C715.703 89.375 715.493 89.7045 715.339 90.0795C715.186 90.4489 715.109 90.8437 715.109 91.2642C715.109 91.8267 715.237 92.3409 715.493 92.8068C715.754 93.2727 716.106 93.6449 716.549 93.9233C716.998 94.2017 717.507 94.3409 718.075 94.3409ZM733.156 97.2386C731.951 97.2386 730.878 97.017 729.934 96.5739C728.997 96.1307 728.253 95.5199 727.701 94.7415C727.15 93.9631 726.863 93.071 726.841 92.0653H730.42C730.46 92.7415 730.744 93.2898 731.272 93.7102C731.801 94.1307 732.429 94.3409 733.156 94.3409C733.735 94.3409 734.247 94.2131 734.69 93.9574C735.139 93.696 735.488 93.3352 735.738 92.875C735.994 92.4091 736.122 91.875 736.122 91.2727C736.122 90.6591 735.991 90.1193 735.73 89.6534C735.474 89.1875 735.119 88.8239 734.664 88.5625C734.21 88.3011 733.69 88.1676 733.105 88.1619C732.593 88.1619 732.096 88.267 731.613 88.4773C731.136 88.6875 730.764 88.9744 730.497 89.3381L727.216 88.75L728.042 79.5455H738.713V82.5625H731.085L730.633 86.9347H730.735C731.042 86.5028 731.505 86.1449 732.125 85.8608C732.744 85.5767 733.437 85.4347 734.204 85.4347C735.255 85.4347 736.193 85.6818 737.017 86.1761C737.841 86.6705 738.491 87.3494 738.968 88.2131C739.446 89.071 739.681 90.0597 739.676 91.179C739.681 92.3551 739.409 93.4006 738.858 94.3153C738.312 95.2244 737.548 95.9403 736.565 96.4631C735.588 96.9801 734.451 97.2386 733.156 97.2386ZM744.904 97H740.95L746.975 79.5455H751.731L757.748 97H753.794L749.422 83.5341H749.285L744.904 97ZM744.657 90.1392H753.998V93.0199H744.657V90.1392ZM765.606 79.3068C766.504 79.3068 767.368 79.4574 768.197 79.7585C769.032 80.0597 769.777 80.5398 770.43 81.1989C771.089 81.858 771.609 82.733 771.99 83.8239C772.376 84.9091 772.572 86.2415 772.578 87.821C772.578 89.304 772.41 90.6278 772.075 91.7926C771.745 92.9517 771.271 93.9375 770.652 94.75C770.032 95.5625 769.285 96.1818 768.41 96.608C767.535 97.0284 766.558 97.2386 765.478 97.2386C764.314 97.2386 763.285 97.0142 762.393 96.5653C761.501 96.1108 760.782 95.4943 760.237 94.7159C759.697 93.9318 759.37 93.0511 759.257 92.0739H762.896C763.038 92.7102 763.336 93.2045 763.791 93.5568C764.245 93.9034 764.808 94.0767 765.478 94.0767C766.615 94.0767 767.478 93.5824 768.069 92.5938C768.66 91.5994 768.958 90.2386 768.964 88.5114H768.845C768.583 89.0227 768.231 89.4631 767.788 89.8324C767.345 90.196 766.836 90.4773 766.262 90.6761C765.694 90.875 765.089 90.9744 764.447 90.9744C763.419 90.9744 762.501 90.733 761.694 90.25C760.887 89.767 760.251 89.1023 759.785 88.2557C759.319 87.4091 759.086 86.4432 759.086 85.358C759.081 84.1875 759.35 83.1449 759.896 82.2301C760.441 81.3153 761.203 80.5994 762.18 80.0824C763.163 79.5597 764.305 79.3011 765.606 79.3068ZM765.632 82.2045C765.058 82.2045 764.546 82.3409 764.098 82.6136C763.654 82.8864 763.302 83.2528 763.041 83.7131C762.785 84.1733 762.66 84.6875 762.666 85.2557C762.666 85.8295 762.791 86.3466 763.041 86.8068C763.296 87.2614 763.643 87.625 764.081 87.8977C764.524 88.1648 765.029 88.2983 765.598 88.2983C766.024 88.2983 766.419 88.2187 766.782 88.0597C767.146 87.9006 767.461 87.6818 767.728 87.4034C768.001 87.1193 768.214 86.7926 768.368 86.4233C768.521 86.054 768.598 85.6619 768.598 85.2472C768.592 84.696 768.461 84.1903 768.206 83.7301C767.95 83.2699 767.598 82.9006 767.149 82.6222C766.7 82.3437 766.194 82.2045 765.632 82.2045ZM781.13 97.2386C779.858 97.2386 778.724 97.0199 777.73 96.5824C776.741 96.1392 775.96 95.5312 775.386 94.7585C774.818 93.9801 774.525 93.0824 774.508 92.0653H778.224C778.247 92.4915 778.386 92.8665 778.642 93.1903C778.903 93.5085 779.25 93.7557 779.681 93.9318C780.113 94.108 780.599 94.196 781.139 94.196C781.701 94.196 782.198 94.0966 782.63 93.8977C783.062 93.6989 783.4 93.4233 783.644 93.071C783.889 92.7187 784.011 92.3125 784.011 91.8523C784.011 91.3864 783.88 90.9744 783.619 90.6165C783.363 90.2528 782.994 89.9687 782.511 89.7642C782.034 89.5597 781.465 89.4574 780.806 89.4574H779.179V86.7472H780.806C781.363 86.7472 781.855 86.6506 782.281 86.4574C782.713 86.2642 783.048 85.9972 783.287 85.6562C783.525 85.3097 783.644 84.9062 783.644 84.446C783.644 84.0085 783.539 83.625 783.329 83.2955C783.125 82.9602 782.835 82.6989 782.46 82.5114C782.09 82.3239 781.659 82.2301 781.164 82.2301C780.664 82.2301 780.207 82.321 779.792 82.5028C779.377 82.679 779.045 82.9318 778.795 83.2614C778.545 83.5909 778.412 83.9773 778.394 84.4205H774.858C774.875 83.4148 775.162 82.5284 775.718 81.7614C776.275 80.9943 777.025 80.3949 777.968 79.9631C778.917 79.5256 779.988 79.3068 781.181 79.3068C782.386 79.3068 783.44 79.5256 784.343 79.9631C785.247 80.4006 785.948 80.9915 786.448 81.7358C786.954 82.4744 787.204 83.304 787.198 84.2244C787.204 85.2017 786.9 86.017 786.287 86.6705C785.679 87.3239 784.886 87.7386 783.909 87.9148V88.0511C785.193 88.2159 786.17 88.6619 786.84 89.3892C787.517 90.1108 787.852 91.0142 787.846 92.0994C787.852 93.0938 787.565 93.9773 786.985 94.75C786.412 95.5227 785.619 96.1307 784.608 96.5739C783.596 97.017 782.437 97.2386 781.13 97.2386ZM796.887 97.3835C795.421 97.3778 794.159 97.017 793.103 96.3011C792.051 95.5852 791.242 94.5483 790.674 93.1903C790.111 91.8324 789.833 90.1989 789.838 88.2898C789.838 86.3864 790.12 84.7642 790.682 83.4233C791.25 82.0824 792.06 81.0625 793.111 80.3636C794.168 79.6591 795.426 79.3068 796.887 79.3068C798.347 79.3068 799.603 79.6591 800.654 80.3636C801.71 81.0682 802.523 82.0909 803.091 83.4318C803.659 84.767 803.941 86.3864 803.935 88.2898C803.935 90.2045 803.651 91.8409 803.083 93.1989C802.52 94.5568 801.713 95.5937 800.662 96.3097C799.611 97.0256 798.353 97.3835 796.887 97.3835ZM796.887 94.3239C797.887 94.3239 798.685 93.821 799.282 92.8153C799.878 91.8097 800.174 90.3011 800.168 88.2898C800.168 86.9659 800.032 85.8636 799.759 84.983C799.492 84.1023 799.111 83.4403 798.617 82.9972C798.128 82.554 797.551 82.3324 796.887 82.3324C795.892 82.3324 795.097 82.8295 794.5 83.8239C793.904 84.8182 793.603 86.3068 793.597 88.2898C793.597 89.6307 793.73 90.75 793.997 91.6477C794.27 92.5398 794.654 93.2102 795.148 93.6591C795.642 94.1023 796.222 94.3239 796.887 94.3239Z" fill="white"/>
<rect x="872" width="192" height="176" rx="6" fill="#E00726"/>
<path d="M923.384 97L926.247 79.5455H928.975L926.111 97H923.384ZM915.568 92.6705L916.02 89.9432H929.656L929.205 92.6705H915.568ZM917.247 97L920.111 79.5455H922.838L919.975 97H917.247ZM916.565 86.6023L917.026 83.875H930.662L930.202 86.6023H916.565ZM931.968 97V79.5455H943.729V82.5881H935.658V86.7472H943.124V89.7898H935.658V93.9574H943.764V97H931.968ZM952.949 97.3835C951.483 97.3778 950.222 97.017 949.165 96.3011C948.114 95.5852 947.304 94.5483 946.736 93.1903C946.173 91.8324 945.895 90.1989 945.901 88.2898C945.901 86.3864 946.182 84.7642 946.744 83.4233C947.313 82.0824 948.122 81.0625 949.173 80.3636C950.23 79.6591 951.489 79.3068 952.949 79.3068C954.409 79.3068 955.665 79.6591 956.716 80.3636C957.773 81.0682 958.585 82.0909 959.153 83.4318C959.722 84.767 960.003 86.3864 959.997 88.2898C959.997 90.2045 959.713 91.8409 959.145 93.1989C958.582 94.5568 957.776 95.5937 956.724 96.3097C955.673 97.0256 954.415 97.3835 952.949 97.3835ZM952.949 94.3239C953.949 94.3239 954.747 93.821 955.344 92.8153C955.94 91.8097 956.236 90.3011 956.23 88.2898C956.23 86.9659 956.094 85.8636 955.821 84.983C955.554 84.1023 955.173 83.4403 954.679 82.9972C954.19 82.554 953.614 82.3324 952.949 82.3324C951.955 82.3324 951.159 82.8295 950.563 83.8239C949.966 84.8182 949.665 86.3068 949.659 88.2898C949.659 89.6307 949.793 90.75 950.06 91.6477C950.332 92.5398 950.716 93.2102 951.21 93.6591C951.705 94.1023 952.284 94.3239 952.949 94.3239ZM969.016 97.3835C967.55 97.3778 966.289 97.017 965.232 96.3011C964.181 95.5852 963.371 94.5483 962.803 93.1903C962.241 91.8324 961.962 90.1989 961.968 88.2898C961.968 86.3864 962.249 84.7642 962.812 83.4233C963.38 82.0824 964.19 81.0625 965.241 80.3636C966.298 79.6591 967.556 79.3068 969.016 79.3068C970.477 79.3068 971.732 79.6591 972.783 80.3636C973.84 81.0682 974.653 82.0909 975.221 83.4318C975.789 84.767 976.07 86.3864 976.065 88.2898C976.065 90.2045 975.781 91.8409 975.212 93.1989C974.65 94.5568 973.843 95.5937 972.792 96.3097C971.741 97.0256 970.482 97.3835 969.016 97.3835ZM969.016 94.3239C970.016 94.3239 970.815 93.821 971.411 92.8153C972.008 91.8097 972.303 90.3011 972.298 88.2898C972.298 86.9659 972.161 85.8636 971.888 84.983C971.621 84.1023 971.241 83.4403 970.746 82.9972C970.258 82.554 969.681 82.3324 969.016 82.3324C968.022 82.3324 967.227 82.8295 966.63 83.8239C966.033 84.8182 965.732 86.3068 965.727 88.2898C965.727 89.6307 965.86 90.75 966.127 91.6477C966.4 92.5398 966.783 93.2102 967.278 93.6591C967.772 94.1023 968.352 94.3239 969.016 94.3239ZM978.462 97L985.697 82.6818V82.5625H977.268V79.5455H989.516V82.6051L982.271 97H978.462ZM991.589 97V94.3409L997.802 88.5881C998.33 88.0767 998.773 87.6165 999.131 87.2074C999.495 86.7983 999.771 86.3977 999.958 86.0057C1000.15 85.608 1000.24 85.179 1000.24 84.7188C1000.24 84.2074 1000.12 83.767 999.89 83.3977C999.657 83.0227 999.339 82.7358 998.935 82.5369C998.532 82.3324 998.075 82.2301 997.563 82.2301C997.029 82.2301 996.563 82.3381 996.165 82.554C995.768 82.7699 995.461 83.0795 995.245 83.483C995.029 83.8864 994.921 84.3665 994.921 84.9233H991.418C991.418 83.7812 991.677 82.7898 992.194 81.9489C992.711 81.108 993.435 80.4574 994.367 79.9972C995.299 79.5369 996.373 79.3068 997.589 79.3068C998.839 79.3068 999.927 79.5284 1000.85 79.9716C1001.78 80.4091 1002.51 81.017 1003.03 81.7955C1003.54 82.5739 1003.8 83.4659 1003.8 84.4716C1003.8 85.1307 1003.67 85.7812 1003.41 86.4233C1003.15 87.0653 1002.7 87.7784 1002.04 88.5625C1001.38 89.3409 1000.45 90.2756 999.251 91.3665L996.702 93.8636V93.983H1004.03V97H991.589ZM1012.95 97.2386C1012.05 97.233 1011.18 97.0824 1010.35 96.7869C1009.52 96.4915 1008.78 96.0114 1008.12 95.3466C1007.46 94.6818 1006.93 93.8011 1006.55 92.7045C1006.17 91.608 1005.98 90.2614 1005.98 88.6648C1005.98 87.1989 1006.15 85.8892 1006.48 84.7358C1006.82 83.5767 1007.29 82.5937 1007.91 81.7869C1008.54 80.9801 1009.28 80.3665 1010.15 79.946C1011.02 79.5199 1012 79.3068 1013.08 79.3068C1014.24 79.3068 1015.27 79.5341 1016.16 79.9886C1017.05 80.4375 1017.77 81.0483 1018.31 81.821C1018.86 82.5938 1019.18 83.4602 1019.3 84.4205H1015.66C1015.52 83.8125 1015.22 83.3352 1014.76 82.9886C1014.31 82.642 1013.75 82.4688 1013.08 82.4688C1011.94 82.4688 1011.08 82.9631 1010.49 83.9517C1009.9 84.9403 1009.6 86.2841 1009.59 87.983H1009.71C1009.97 87.4659 1010.32 87.0256 1010.77 86.6619C1011.22 86.2926 1011.72 86.0114 1012.29 85.8182C1012.87 85.6193 1013.47 85.5199 1014.11 85.5199C1015.14 85.5199 1016.06 85.7642 1016.87 86.2528C1017.68 86.7358 1018.31 87.4006 1018.78 88.2472C1019.24 89.0937 1019.48 90.0625 1019.48 91.1534C1019.48 92.3352 1019.2 93.3864 1018.65 94.3068C1018.11 95.2273 1017.34 95.9489 1016.36 96.4716C1015.38 96.9886 1014.24 97.2443 1012.95 97.2386ZM1012.93 94.3409C1013.5 94.3409 1014.01 94.2045 1014.46 93.9318C1014.91 93.6591 1015.26 93.2898 1015.51 92.8239C1015.77 92.358 1015.9 91.8352 1015.9 91.2557C1015.9 90.6761 1015.77 90.1562 1015.51 89.696C1015.26 89.2358 1014.92 88.8693 1014.47 88.5966C1014.03 88.3239 1013.53 88.1875 1012.96 88.1875C1012.53 88.1875 1012.14 88.267 1011.77 88.4261C1011.41 88.5852 1011.1 88.8068 1010.83 89.0909C1010.56 89.375 1010.35 89.7045 1010.2 90.0795C1010.04 90.4489 1009.97 90.8437 1009.97 91.2642C1009.97 91.8267 1010.09 92.3409 1010.35 92.8068C1010.61 93.2727 1010.96 93.6449 1011.41 93.9233C1011.86 94.2017 1012.36 94.3409 1012.93 94.3409Z" fill="white"/>
</svg>
